<!-- Generated by IcoMoon.io -->
<svg version="1.1" xmlns="http://www.w3.org/2000/svg" width="78" height="32" viewBox="0 0 78 32">
<path fill="#f6cc90" d="M7.782 20.73c0-0.006 1.14-0.974 3.829-0.974 2.612 0 3.829 0.968 3.829 0.974h-7.658z"></path>
<path fill="#f0c17f" d="M11.611 19.756c-0.167 0-0.328 0.004-0.483 0.011 2.288 0.106 3.359 0.958 3.359 0.963h0.953c0-0.006-1.217-0.974-3.829-0.974z"></path>
<path fill="#c5e866" d="M13.349 13.016c-0.312 0.904-1.151 1.059-1.151 1.059s-0.556-0.666-0.253-1.546c0.32-0.927 1.159-1.083 1.159-1.083s0.56 0.654 0.245 1.57z"></path>
<path fill="#b2d94b" d="M13.105 11.447c0 0-0.222 0.041-0.481 0.207 0.142 0.263 0.319 0.755 0.109 1.363-0.151 0.437-0.425 0.699-0.668 0.853 0.071 0.132 0.133 0.206 0.133 0.206s0.839-0.155 1.151-1.059c0.316-0.915-0.245-1.57-0.245-1.57z"></path>
<path fill="#9cc042" d="M12.512 17.265c-0.512 0.073-0.889-0.032-0.889-0.032s-0.326-1.308 0.692-2.329c1.073-1.076 2.349-0.722 2.349-0.722s0.28 1.067-0.462 2.059z"></path>
<path fill="#85aa18" d="M14.665 14.182c0 0-0.342-0.095-0.821-0.037 0.129 0.016 0.205 0.037 0.205 0.037s0.28 1.067-0.462 2.059l-1.691 1.024c-0.019 0.003-0.037 0.005-0.056 0.007 0.16 0.020 0.396 0.032 0.672-0.007l1.691-1.024c0.742-0.992 0.462-2.059 0.462-2.059z"></path>
<path fill="#c5e866" d="M10.403 16.579c0.908 0.716 0.753 1.742 0.753 1.742s-0.981 0.375-1.866-0.322c-0.932-0.735-0.777-1.761-0.777-1.761s0.969-0.385 1.889 0.341z"></path>
<path fill="#9cc042" d="M9.361 15.102c0.915 1.165 2.224 0.965 2.224 0.965s0.478-1.26-0.413-2.395c-0.938-1.196-2.247-0.995-2.247-0.995s-0.489 1.245 0.437 2.425z"></path>
<path fill="#c5e866" d="M13.967 17.793c-0.785 0.543-1.553 0.169-1.553 0.169s-0.055-0.867 0.71-1.396c0.805-0.557 1.573-0.183 1.573-0.183s0.065 0.86-0.73 1.41z"></path>
<path fill="#b2d94b" d="M14.697 16.383c0 0-0.4-0.195-0.926-0.094 0.192 0.036 0.31 0.094 0.31 0.094s0.065 0.86-0.73 1.41c-0.213 0.147-0.424 0.227-0.62 0.265 0.296 0.056 0.763 0.062 1.236-0.265 0.795-0.55 0.73-1.41 0.73-1.41z"></path>
<path fill="#060606" d="M15.463 20.572c-0.277-0.195-0.593-0.341-0.908-0.462-0.569-0.219-1.515-0.478-2.826-0.493 0.021-0.181 0.072-0.442 0.19-0.732 0.117-0.288 0.276-0.548 0.475-0.779 0.093 0.038 0.334 0.123 0.648 0.123 0.291 0 0.645-0.072 1.004-0.32 0.851-0.589 0.793-1.497 0.79-1.536-0.004-0.050-0.034-0.094-0.078-0.115-0.013-0.006-0.134-0.064-0.325-0.102 0.156-0.245 0.271-0.511 0.341-0.793 0.044-0.175-0.228-0.243-0.272-0.068-0.074 0.298-0.204 0.575-0.384 0.826-0.303-0.007-0.684 0.062-1.074 0.331-0.291 0.201-0.472 0.446-0.586 0.68-0.246 0.031-0.457 0.020-0.6 0.002 0.285-0.384 1.026-1.314 1.862-1.8 0.156-0.091 0.015-0.333-0.141-0.242-0.813 0.473-1.52 1.315-1.861 1.762-0.020-0.436 0.056-1.205 0.698-1.849 0.418-0.42 0.916-0.663 1.48-0.723 0.295-0.031 0.532-0.002 0.651 0.020 0.012 0.073 0.028 0.191 0.030 0.339 0.003 0.179 0.283 0.177 0.28-0.005-0.005-0.291-0.054-0.48-0.056-0.488-0.013-0.048-0.050-0.086-0.098-0.099-0.014-0.004-0.35-0.095-0.824-0.047-0.436 0.044-1.078 0.22-1.662 0.805-0.049 0.049-0.094 0.098-0.137 0.148 0.079-0.242 0.165-0.504 0.252-0.768 0.254-0.077 0.88-0.343 1.15-1.123 0.338-0.98-0.246-1.677-0.271-1.707-0.033-0.038-0.083-0.056-0.132-0.047-0.038 0.007-0.924 0.182-1.266 1.175-0.284 0.824 0.121 1.469 0.245 1.639-0.082 0.245-0.161 0.489-0.235 0.715-0.057-0.379-0.205-0.824-0.54-1.252-0.51-0.65-1.127-0.901-1.555-0.996-0.465-0.104-0.809-0.053-0.824-0.051-0.049 0.008-0.091 0.041-0.109 0.087-0.004 0.010-0.097 0.249-0.128 0.616-0.015 0.18 0.264 0.204 0.279 0.024 0.018-0.207 0.057-0.368 0.084-0.458 0.12-0.007 0.359-0.009 0.648 0.057 0.553 0.126 1.019 0.427 1.385 0.893 0.347 0.442 0.519 0.954 0.511 1.524-0.003 0.185-0.025 0.347-0.049 0.471-0.554-1.032-1.339-1.825-1.373-1.86-0.128-0.128-0.326 0.070-0.198 0.198 0.008 0.008 0.817 0.826 1.353 1.847-0.125-0.003-0.288-0.017-0.47-0.057-0.548-0.121-1.007-0.413-1.363-0.867-0.248-0.316-0.412-0.667-0.488-1.042-0.036-0.177-0.31-0.122-0.275 0.055 0.085 0.419 0.267 0.809 0.542 1.16 0.498 0.635 1.11 0.878 1.535 0.97 0.212 0.046 0.431 0.068 0.647 0.061v2.359c-0.042-0.091-0.088-0.177-0.136-0.259 0.019-0.166 0.088-1.144-0.808-1.85-0.972-0.766-1.985-0.378-2.028-0.361-0.046 0.018-0.079 0.060-0.087 0.109-0.007 0.045-0.156 1.116 0.829 1.892 0.457 0.36 0.935 0.455 1.31 0.455 0.243 0 0.442-0.040 0.564-0.072 0.195 0.341 0.31 0.717 0.345 1.125-0.725 0.012-1.401 0.096-2.013 0.248-0.175 0.044-0.107 0.316 0.068 0.272 0.593-0.148 1.25-0.229 1.956-0.24v0.322c0 0.181 0.28 0.181 0.28 0v-0.323c1.652 0.016 2.708 0.421 3.233 0.693h-6.689c0.136-0.072 0.31-0.154 0.525-0.236 0.169-0.064 0.069-0.326-0.1-0.262-0.349 0.133-0.597 0.267-0.744 0.357-0.298 0.182-0.298 0.226-0.298 0.281 0 0.077 0.063 0.14 0.14 0.14h7.658c0.213-0 0.129-0.224 0.023-0.298zM13.203 16.681c0.591-0.409 1.152-0.274 1.354-0.203-0.008 0.216-0.086 0.796-0.671 1.2-0.53 0.366-1.046 0.279-1.28 0.207 0.276-0.258 0.612-0.473 1.006-0.642 0.166-0.071 0.056-0.329-0.11-0.258-0.356 0.152-0.649 0.334-0.891 0.528 0.073-0.26 0.235-0.585 0.592-0.832zM12.146 17.431c0.063 0 0.13-0.002 0.2-0.007-0.046 0.16-0.064 0.301-0.070 0.4-0.265 0.282-0.443 0.572-0.562 0.83v-1.257c0.098 0.017 0.248 0.036 0.432 0.036zM12.078 12.575c0.235-0.68 0.766-0.906 0.971-0.969 0.122 0.179 0.4 0.692 0.168 1.365-0.174 0.504-0.522 0.752-0.769 0.87 0.182-0.538 0.362-1.047 0.492-1.367 0.068-0.167-0.191-0.273-0.259-0.106-0.136 0.334-0.321 0.859-0.507 1.409-0.127-0.244-0.275-0.68-0.095-1.202zM9.377 17.889c-0.357-0.282-0.588-0.64-0.685-1.065-0.048-0.209-0.050-0.383-0.046-0.481 0.239-0.067 0.971-0.205 1.671 0.346 0.347 0.274 0.571 0.626 0.665 1.048 0.014 0.061 0.023 0.12 0.030 0.174-0.093-0.112-0.188-0.212-0.28-0.297-0.483-0.453-0.963-0.643-0.983-0.651-0.168-0.066-0.27 0.196-0.102 0.261 0.004 0.002 0.449 0.178 0.893 0.594 0.142 0.133 0.267 0.274 0.375 0.423-0.31 0.063-0.949 0.112-1.538-0.352z"></path>
<path fill="#000" d="M18.544 18.648v-5.466h4.104v5.466h-0.681v-4.862h-2.733v4.862h-0.689zM27.543 16.589c0 0.342-0.046 0.646-0.138 0.911-0.087 0.26-0.214 0.482-0.383 0.666-0.163 0.184-0.365 0.324-0.605 0.421-0.235 0.092-0.498 0.138-0.789 0.138-0.27 0-0.521-0.046-0.75-0.138-0.23-0.097-0.429-0.237-0.597-0.421s-0.301-0.406-0.398-0.666c-0.092-0.265-0.138-0.569-0.138-0.911 0-0.454 0.077-0.837 0.23-1.148 0.153-0.316 0.373-0.556 0.658-0.72 0.286-0.168 0.625-0.253 1.018-0.253 0.373 0 0.699 0.084 0.98 0.253 0.286 0.163 0.508 0.403 0.666 0.72 0.163 0.311 0.245 0.694 0.245 1.148zM24.442 16.589c0 0.322 0.041 0.602 0.122 0.842 0.087 0.235 0.219 0.416 0.398 0.544s0.406 0.191 0.681 0.191 0.503-0.064 0.681-0.191c0.179-0.128 0.309-0.309 0.39-0.544 0.087-0.24 0.13-0.521 0.13-0.842 0-0.327-0.043-0.605-0.13-0.835s-0.219-0.406-0.398-0.528c-0.174-0.128-0.401-0.191-0.681-0.191-0.419 0-0.722 0.138-0.911 0.413s-0.283 0.656-0.283 1.141zM31.581 14.545v3.537h0.597v1.991h-0.651v-1.424h-2.856v1.424h-0.643v-1.991h0.329c0.235-0.327 0.429-0.681 0.582-1.064 0.158-0.388 0.276-0.791 0.352-1.21 0.082-0.424 0.125-0.845 0.13-1.263h2.159zM30.019 15.073c-0.020 0.347-0.074 0.707-0.161 1.080-0.087 0.367-0.199 0.72-0.337 1.057-0.133 0.337-0.288 0.628-0.467 0.873h1.876v-3.009h-0.911zM36.474 16.589c0 0.342-0.046 0.646-0.138 0.911-0.087 0.26-0.214 0.482-0.383 0.666-0.163 0.184-0.365 0.324-0.605 0.421-0.235 0.092-0.498 0.138-0.789 0.138-0.27 0-0.521-0.046-0.75-0.138-0.23-0.097-0.429-0.237-0.597-0.421s-0.301-0.406-0.398-0.666c-0.092-0.265-0.138-0.569-0.138-0.911 0-0.454 0.077-0.837 0.23-1.148 0.153-0.316 0.373-0.556 0.658-0.72 0.286-0.168 0.625-0.253 1.018-0.253 0.373 0 0.699 0.084 0.98 0.253 0.286 0.163 0.508 0.403 0.666 0.72 0.163 0.311 0.245 0.694 0.245 1.148zM33.373 16.589c0 0.322 0.041 0.602 0.123 0.842 0.087 0.235 0.219 0.416 0.398 0.544s0.406 0.191 0.681 0.191 0.503-0.064 0.681-0.191c0.179-0.128 0.309-0.309 0.391-0.544 0.087-0.24 0.13-0.521 0.13-0.842 0-0.327-0.043-0.605-0.13-0.835s-0.219-0.406-0.398-0.528c-0.174-0.128-0.401-0.191-0.681-0.191-0.419 0-0.722 0.138-0.911 0.413s-0.283 0.656-0.283 1.141zM39.417 14.468c0.505 0 0.911 0.176 1.217 0.528 0.311 0.352 0.467 0.883 0.467 1.592 0 0.464-0.071 0.857-0.214 1.179-0.138 0.316-0.334 0.556-0.589 0.72-0.25 0.158-0.546 0.237-0.888 0.237-0.209 0-0.396-0.028-0.559-0.084s-0.304-0.128-0.421-0.214c-0.112-0.092-0.209-0.191-0.291-0.299h-0.046c0.010 0.087 0.020 0.197 0.031 0.329s0.015 0.248 0.015 0.345v1.684h-0.674v-5.941h0.551l0.092 0.559h0.031c0.082-0.117 0.179-0.225 0.291-0.322 0.117-0.097 0.255-0.174 0.413-0.23 0.163-0.056 0.355-0.084 0.574-0.084zM39.295 15.035c-0.276 0-0.498 0.054-0.666 0.161-0.168 0.102-0.291 0.258-0.367 0.467s-0.117 0.475-0.123 0.796v0.13c0 0.337 0.036 0.623 0.107 0.857s0.191 0.413 0.36 0.536c0.174 0.122 0.408 0.184 0.704 0.184 0.25 0 0.454-0.069 0.612-0.207 0.163-0.138 0.283-0.324 0.36-0.559 0.082-0.24 0.123-0.513 0.123-0.819 0-0.47-0.092-0.845-0.276-1.125-0.179-0.281-0.457-0.421-0.835-0.421zM45.667 16.589c0 0.342-0.046 0.646-0.138 0.911-0.087 0.26-0.215 0.482-0.383 0.666-0.163 0.184-0.365 0.324-0.605 0.421-0.235 0.092-0.498 0.138-0.788 0.138-0.27 0-0.521-0.046-0.751-0.138-0.23-0.097-0.429-0.237-0.597-0.421s-0.301-0.406-0.398-0.666c-0.092-0.265-0.138-0.569-0.138-0.911 0-0.454 0.077-0.837 0.23-1.148 0.153-0.316 0.373-0.556 0.658-0.72 0.286-0.168 0.625-0.253 1.018-0.253 0.372 0 0.699 0.084 0.98 0.253 0.286 0.163 0.508 0.403 0.666 0.72 0.163 0.311 0.245 0.694 0.245 1.148zM42.566 16.589c0 0.322 0.041 0.602 0.123 0.842 0.087 0.235 0.219 0.416 0.398 0.544s0.406 0.191 0.681 0.191 0.503-0.064 0.681-0.191c0.178-0.128 0.308-0.309 0.39-0.544 0.087-0.24 0.13-0.521 0.13-0.842 0-0.327-0.044-0.605-0.13-0.835s-0.22-0.406-0.398-0.528c-0.174-0.128-0.401-0.191-0.681-0.191-0.419 0-0.722 0.138-0.911 0.413s-0.283 0.656-0.283 1.141zM51.431 14.545l-1.692 1.991 1.837 2.113h-0.765l-1.776-2.082v2.082h-0.628v-2.082l-1.776 2.082h-0.766l1.838-2.113-1.692-1.991h0.735l1.661 1.991v-1.991h0.628v1.991l1.669-1.991h0.727zM52.847 14.545v1.707h2.228v-1.707h0.674v4.104h-0.674v-1.83h-2.228v1.83h-0.674v-4.104h0.674zM57.607 17.048c0 0.046-0.003 0.112-0.008 0.199 0 0.082-0.003 0.171-0.008 0.268-0.005 0.092-0.010 0.181-0.015 0.268-0.005 0.082-0.010 0.148-0.015 0.199l2.197-3.438h0.827v4.104h-0.628v-2.419c0-0.082 0-0.189 0-0.322 0.005-0.133 0.010-0.263 0.015-0.39 0.005-0.133 0.010-0.232 0.015-0.299l-2.182 3.43h-0.835v-4.104h0.635v2.503zM64.242 14.545h0.735l-1.754 1.975 1.899 2.128h-0.781l-1.853-2.082v2.082h-0.674v-4.104h0.674v1.991l1.753-1.991zM66.426 17.048c0 0.046-0.003 0.112-0.008 0.199 0 0.082-0.003 0.171-0.008 0.268-0.005 0.092-0.010 0.181-0.015 0.268-0.005 0.082-0.010 0.148-0.015 0.199l2.197-3.438h0.827v4.104h-0.628v-2.419c0-0.082 0-0.189 0-0.322 0.005-0.133 0.010-0.263 0.015-0.39 0.005-0.133 0.010-0.232 0.015-0.299l-2.182 3.43h-0.835v-4.104h0.635v2.503z"></path>
</svg>
