<!-- Generated by IcoMoon.io -->
<svg version="1.1" xmlns="http://www.w3.org/2000/svg" width="32" height="32" viewBox="0 0 32 32">
<path fill="#f6cc90" d="M5 29c0-0.019 3.276-3 11-3 7.503 0 11 2.981 11 3h-22z"></path>
<path fill="#f0c17f" d="M16.343 26c-0.464 0-0.912 0.012-1.343 0.033 6.368 0.325 9.349 2.949 9.349 2.967h2.651c0-0.019-3.388-3-10.657-3z"></path>
<path fill="#c5e866" d="M20.758 7.18c-0.783 2.406-2.894 2.82-2.894 2.82s-1.399-1.773-0.636-4.117c0.804-2.469 2.915-2.883 2.915-2.883s1.409 1.742 0.615 4.18z"></path>
<path fill="#b2d94b" d="M20.012 3c0 0-0.643 0.11-1.393 0.551 0.412 0.699 0.924 2.010 0.317 3.628-0.437 1.164-1.231 1.862-1.935 2.272 0.206 0.35 0.386 0.548 0.386 0.548s2.432-0.414 3.335-2.82c0.914-2.437-0.709-4.18-0.709-4.18z"></path>
<path fill="#9cc042" d="M18.687 18.935c-1.466 0.184-2.545-0.080-2.545-0.080s-0.933-3.306 1.983-5.888c3.072-2.72 6.727-1.825 6.727-1.825s0.802 2.698-1.323 5.206z"></path>
<path fill="#85aa18" d="M24.856 11.141c0 0-0.952-0.24-2.284-0.094 0.36 0.041 0.57 0.094 0.57 0.094s0.779 2.698-1.285 5.206l-4.703 2.588c-0.052 0.007-0.104 0.013-0.154 0.018 0.444 0.050 1.102 0.081 1.869-0.018l4.703-2.588c2.063-2.508 1.285-5.206 1.285-5.206z"></path>
<path fill="#c5e866" d="M12.706 17.162c2.73 1.88 2.264 4.573 2.264 4.573s-2.947 0.985-5.606-0.845c-2.801-1.928-2.335-4.622-2.335-4.622s2.912-1.010 5.677 0.894z"></path>
<path fill="#9cc042" d="M9.553 13.423c2.508 3.070 6.097 2.542 6.097 2.542s1.309-3.319-1.133-6.31c-2.573-3.15-6.162-2.622-6.162-2.622s-1.342 3.279 1.198 6.39z"></path>
<path fill="#c5e866" d="M22.759 21.034c-2.404 1.782-4.757 0.554-4.757 0.554s-0.167-2.848 2.174-4.584c2.466-1.828 4.819-0.6 4.819-0.6s0.198 2.825-2.237 4.63z"></path>
<path fill="#b2d94b" d="M24.996 16.403c0 0-1.221-0.64-2.824-0.308 0.585 0.119 0.944 0.308 0.944 0.308s0.197 2.825-2.227 4.63c-0.649 0.483-1.294 0.745-1.89 0.87 0.904 0.185 2.327 0.204 3.769-0.87 2.424-1.805 2.227-4.63 2.227-4.63z"></path>
<path fill="#060606" d="M26.698 28.189c-0.768-0.531-1.645-0.926-2.519-1.256-1.578-0.595-4.203-1.301-7.84-1.341 0.059-0.493 0.199-1.201 0.527-1.989 0.326-0.783 0.766-1.489 1.318-2.117 0.259 0.105 0.927 0.334 1.799 0.334 0.808 0 1.79-0.197 2.786-0.871 2.362-1.6 2.2-4.070 2.192-4.175-0.010-0.135-0.093-0.255-0.217-0.314-0.035-0.017-0.372-0.173-0.903-0.278 0.433-0.666 0.751-1.389 0.947-2.157 0.122-0.477-0.632-0.661-0.754-0.185-0.206 0.809-0.565 1.564-1.065 2.245-0.841-0.019-1.898 0.168-2.981 0.901-0.807 0.547-1.311 1.212-1.625 1.848-0.682 0.085-1.268 0.054-1.665 0.006 0.79-1.044 2.848-3.573 5.165-4.895 0.433-0.247 0.042-0.906-0.391-0.658-2.255 1.286-4.217 3.574-5.163 4.79-0.055-1.186 0.155-3.277 1.936-5.027 1.161-1.141 2.542-1.802 4.106-1.965 0.819-0.085 1.477-0.004 1.805 0.054 0.035 0.199 0.077 0.52 0.084 0.923 0.009 0.487 0.786 0.481 0.777-0.013-0.014-0.79-0.149-1.304-0.155-1.326-0.035-0.131-0.139-0.234-0.272-0.27-0.039-0.011-0.971-0.258-2.285-0.128-1.21 0.12-2.992 0.598-4.61 2.188-0.135 0.133-0.261 0.267-0.38 0.403 0.218-0.659 0.456-1.371 0.7-2.087 0.704-0.21 2.442-0.932 3.189-3.054 0.937-2.664-0.682-4.56-0.751-4.64-0.090-0.103-0.23-0.152-0.366-0.127-0.104 0.019-2.563 0.494-3.512 3.194-0.788 2.241 0.335 3.993 0.678 4.455-0.227 0.667-0.448 1.328-0.652 1.945-0.157-1.030-0.568-2.239-1.499-3.403-1.415-1.768-3.127-2.448-4.315-2.708-1.29-0.282-2.245-0.145-2.285-0.139-0.137 0.021-0.252 0.111-0.303 0.237-0.011 0.027-0.268 0.678-0.356 1.676-0.043 0.489 0.731 0.555 0.774 0.066 0.050-0.562 0.159-1.001 0.233-1.246 0.333-0.019 0.997-0.023 1.798 0.156 1.533 0.343 2.826 1.16 3.841 2.428 0.962 1.201 1.439 2.595 1.418 4.142-0.007 0.504-0.069 0.944-0.137 1.282-1.537-2.806-3.714-4.962-3.81-5.056-0.354-0.348-0.904 0.19-0.55 0.538 0.023 0.023 2.267 2.246 3.753 5.022-0.347-0.008-0.798-0.045-1.303-0.155-1.522-0.33-2.794-1.123-3.782-2.356-0.688-0.859-1.143-1.812-1.354-2.833-0.099-0.482-0.861-0.331-0.762 0.151 0.235 1.139 0.741 2.199 1.504 3.153 1.382 1.726 3.079 2.387 4.259 2.637 0.588 0.125 1.194 0.184 1.796 0.165v6.413c-0.117-0.248-0.244-0.482-0.377-0.704 0.053-0.451 0.245-3.11-2.242-5.030-2.698-2.084-5.507-1.027-5.625-0.981-0.128 0.050-0.22 0.163-0.241 0.297-0.019 0.123-0.432 3.033 2.299 5.143 1.269 0.98 2.595 1.236 3.633 1.236 0.674 0 1.226-0.108 1.564-0.195 0.541 0.926 0.861 1.948 0.957 3.059-2.011 0.033-3.888 0.26-5.584 0.675-0.486 0.119-0.298 0.858 0.188 0.739 1.644-0.403 3.468-0.622 5.427-0.653v0.875c0 0.491 0.777 0.491 0.777 0v-0.878c4.583 0.045 7.513 1.144 8.969 1.884h-18.556c0.378-0.197 0.861-0.42 1.457-0.642 0.469-0.175 0.192-0.887-0.276-0.712-0.968 0.361-1.657 0.727-2.065 0.97-0.828 0.494-0.828 0.614-0.828 0.765 0 0.21 0.174 0.381 0.389 0.381h21.245c0.591 0 0.358-0.608 0.065-0.811zM20.429 17.613c1.64-1.111 3.197-0.745 3.757-0.552-0.022 0.588-0.239 2.163-1.86 3.262-1.47 0.996-2.901 0.757-3.552 0.562 0.766-0.703 1.698-1.286 2.791-1.745 0.461-0.194 0.155-0.894-0.306-0.7-0.987 0.414-1.8 0.907-2.471 1.436 0.202-0.707 0.651-1.591 1.642-2.262zM17.498 19.65c0.174 0 0.36-0.006 0.554-0.020-0.128 0.435-0.177 0.818-0.195 1.087-0.736 0.765-1.229 1.555-1.558 2.255v-3.419c0.273 0.046 0.688 0.097 1.2 0.097zM17.307 6.449c0.651-1.85 2.125-2.463 2.693-2.635 0.337 0.487 1.111 1.882 0.467 3.711-0.482 1.37-1.449 2.045-2.133 2.365 0.505-1.462 1.003-2.846 1.365-3.716 0.189-0.455-0.53-0.743-0.72-0.288-0.377 0.907-0.892 2.336-1.408 3.832-0.353-0.663-0.764-1.85-0.265-3.269zM9.816 20.897c-0.991-0.765-1.631-1.74-1.902-2.896-0.133-0.567-0.14-1.042-0.128-1.308 0.662-0.182 2.694-0.558 4.635 0.941 0.964 0.744 1.584 1.703 1.844 2.85 0.038 0.167 0.065 0.326 0.084 0.474-0.259-0.306-0.522-0.575-0.776-0.808-1.341-1.233-2.671-1.749-2.728-1.77-0.467-0.178-0.749 0.532-0.282 0.71 0.012 0.005 1.246 0.483 2.478 1.616 0.394 0.362 0.74 0.746 1.041 1.15-0.861 0.172-2.632 0.304-4.266-0.958z"></path>
</svg>
