<svg xmlns="http://www.w3.org/2000/svg" aria-hidden="true" style="position:absolute;width:0;height:0;overflow:hidden">
  <defs>
    <symbol id="icon-arrow_back" viewBox="0 0 32 32">
      <path stroke-width="1.333" d="M16.01 6.249c.114 0 .212.035.322.145a.45.45 0 0 1 .145.332.425.425 0 0 1-.145.324L7.85 15.532h17.88a.451.451 0 0 1 .477.469c0 .16-.046.255-.129.337a.457.457 0 0 1-.348.132H7.85l8.474 8.473c.11.11.147.212.148.335v.001a.4.4 0 0 1-.074.246l-.069.082a.415.415 0 0 1-.323.142.457.457 0 0 1-.341-.151l-9.264-9.264a.542.542 0 0 1-.121-.167v-.001c-.02-.048-.031-.102-.031-.165s.012-.116.031-.163v-.001a.554.554 0 0 1 .121-.167l9.267-9.267a.466.466 0 0 1 .342-.152z"/>
    </symbol>
    <symbol id="icon-arrow_forward" viewBox="0 0 32 32">
      <path stroke-width="1.333" d="M15.993 6.253a.432.432 0 0 1 .259.081l.082.07 9.264 9.264a.542.542 0 0 1 .121.167v.001c.02.048.031.102.031.165s-.012.116-.031.163v.001a.567.567 0 0 1-.121.167l-9.272 9.264c-.122.12-.227.155-.337.155-.108 0-.204-.033-.315-.147l-.007-.007-.069-.081c-.056-.079-.075-.157-.075-.243s.02-.163.075-.242l.069-.081 8.482-8.482H6.269c-.163 0-.259-.047-.34-.128h-.001a.44.44 0 0 1-.128-.341c0-.162.046-.26.128-.341h.001c.081-.081.177-.127.34-.128h17.88l-8.474-8.474a.467.467 0 0 1-.141-.246l-.008-.09a.423.423 0 0 1 .141-.326l.001-.001a.42.42 0 0 1 .324-.142z"/>
    </symbol>
    <symbol id="icon-bookmark" viewBox="0 0 32 32">
      <path d="m16 24.223-6.358 2.72c-.757.326-1.475.265-2.155-.184s-1.02-1.083-1.02-1.905V5.904c0-.616.225-1.149.676-1.601s.982-.678 1.595-.678h14.523c.616 0 1.149.226 1.601.678s.678.985.678 1.601v18.95c0 .821-.341 1.456-1.024 1.905s-1.402.51-2.159.184l-6.358-2.72zm0-2.429 7.262 3.061V5.905H8.739v18.95l7.262-3.061zm0-15.889z"/>
    </symbol>
    <symbol id="icon-chevron_left" viewBox="0 0 32 32">
      <path stroke-width="1.333" d="M18.716 8.865c.134 0 .237.041.341.145s.145.207.145.341-.04.237-.145.341l-6.276 6.276 6.276 6.275c.104.104.133.193.129.301a.492.492 0 0 1-.161.348c-.104.104-.207.146-.341.146s-.237-.042-.341-.146l-6.592-6.591a.743.743 0 0 1-.082-.096l-.039-.07a.415.415 0 0 1-.031-.165c0-.032.002-.063.008-.09l.023-.077a.548.548 0 0 1 .121-.167l6.626-6.625a.447.447 0 0 1 .34-.145z"/>
    </symbol>
    <symbol id="icon-chevron_right" viewBox="0 0 32 32">
      <path stroke-width="1.333" d="M12.516 8.897c.134 0 .237.041.341.145l6.592 6.592a.547.547 0 0 1 .121.165v.001c.02.047.031.1.031.165s-.012.118-.031.165v.001a.547.547 0 0 1-.121.165l-6.625 6.625c-.104.104-.193.133-.301.129a.492.492 0 0 1-.348-.161c-.104-.104-.146-.207-.146-.341s.042-.237.146-.341l6.242-6.242-6.276-6.276c-.104-.104-.133-.192-.129-.299a.491.491 0 0 1 .163-.349.447.447 0 0 1 .34-.145z"/>
    </symbol>
    <symbol id="icon-close" viewBox="0 0 32 32">
      <path stroke-width="1.333" d="M23.466 7.9c.219 0 .355.065.462.172s.172.242.172.461c0 .219-.065.355-.172.462L16.923 16l7.005 7.004c.107.107.172.243.172.462s-.065.355-.172.462-.243.172-.462.172c-.219 0-.355-.065-.462-.172L16 16.923l-7.005 7.005c-.107.107-.243.172-.462.172s-.354-.065-.461-.172c-.107-.107-.172-.243-.172-.462s.065-.355.172-.462L15.076 16 8.072 8.995c-.107-.107-.172-.243-.172-.462s.065-.354.172-.461.242-.172.461-.172c.219 0 .355.065.462.172L16 15.076l7.004-7.004c.107-.107.243-.172.462-.172z"/>
    </symbol>
    <symbol id="icon-communication" viewBox="0 0 32 32">
      <path d="M1.15 21.271v-.569c0-1.243.618-2.059 1.853-2.45s2.329-.586 3.283-.586c.954 0 2.048.195 3.283.584s1.853 1.207 1.853 2.451v.569H1.151zm5.134-5.39c-.725 0-1.345-.259-1.861-.776s-.773-1.14-.773-1.866.258-1.348.775-1.863c.516-.515 1.137-.773 1.862-.773s1.345.259 1.861.776.773 1.139.773 1.864-.258 1.346-.775 1.864a2.537 2.537 0 0 1-1.862.776zm6.96 1.999c-.255 0-.466-.08-.632-.24s-.249-.365-.249-.616c0-.125.083-.342.249-.65.172-.244.309-.5.409-.767s.15-.545.15-.834c0-.289-.05-.575-.15-.858s-.237-.532-.411-.749c-.072-.097-.131-.198-.177-.303s-.069-.216-.069-.333c0-.254.083-.464.25-.629s.377-.248.631-.248c.112 0 .228.018.346.054s.211.098.278.187c.388.405.673.856.853 1.353s.271 1.006.271 1.526c0 .516-.097 1.035-.291 1.556s-.48.968-.856 1.34c-.089.089-.182.146-.278.171s-.204.038-.322.038zm2.539 2.535c-.26 0-.471-.084-.633-.251s-.243-.379-.243-.635c0-.118.022-.228.065-.33s.101-.201.173-.296c.546-.639.951-1.307 1.215-2.005s.395-1.405.395-2.125-.132-1.434-.395-2.144a6.393 6.393 0 0 0-1.216-1.998c-.071-.095-.129-.192-.172-.291s-.065-.211-.065-.335c0-.258.083-.469.25-.633s.377-.246.632-.246c.13 0 .252.03.363.091s.214.141.308.242c.695.8 1.215 1.649 1.558 2.547s.516 1.819.516 2.764c0 .945-.172 1.866-.516 2.764s-.863 1.747-1.558 2.547c-.087.111-.187.194-.299.25s-.238.083-.378.083zm4.796.856v-.569c0-1.244.617-2.061 1.853-2.451s2.329-.584 3.283-.584c.954 0 2.048.195 3.283.586s1.853 1.207 1.853 2.45v.569H20.58zm5.134-5.39c-.725 0-1.345-.259-1.861-.776s-.773-1.14-.773-1.866.258-1.348.775-1.863c.516-.515 1.137-.773 1.862-.773s1.345.259 1.861.776.773 1.139.773 1.864-.258 1.346-.775 1.864a2.537 2.537 0 0 1-1.862.776z"/>
    </symbol>
    <symbol id="icon-Company-Logo" viewBox="0 0 32 32">
      <path d="M1.075 18.171c0-.003.548-.468 1.841-.468 1.256 0 1.841.465 1.841.468H1.075z"/>
      <path d="M2.915 17.703c-.08 0-.158.002-.232.005 1.1.051 1.615.46 1.615.463h.458c0-.003-.585-.468-1.841-.468zM3.751 14.463c-.15.434-.553.509-.553.509s-.267-.32-.122-.743c.154-.446.557-.521.557-.521s.269.315.118.755z"/>
      <path d="M3.634 13.708s-.107.02-.231.1a.808.808 0 0 1 .053.655.77.77 0 0 1-.321.41c.034.063.064.099.064.099s.404-.075.553-.509c.152-.44-.118-.755-.118-.755zM3.349 16.506c-.246.035-.427-.015-.427-.015s-.157-.629.333-1.12c.516-.517 1.129-.347 1.129-.347s.135.513-.222.99z"/>
      <path d="M4.384 15.023s-.165-.046-.395-.018c.062.008.098.018.098.018s.135.513-.222.99l-.813.492-.027.003c.077.009.19.015.323-.003l.813-.492c.357-.477.222-.99.222-.99zM2.335 16.176c.437.344.362.838.362.838s-.472.18-.897-.155c-.448-.353-.374-.847-.374-.847s.466-.185.908.164zM1.834 15.466c.44.56 1.069.464 1.069.464s.23-.606-.199-1.151c-.451-.575-1.081-.478-1.081-.478s-.235.598.21 1.166z"/>
      <path d="M4.048 16.76c-.377.261-.747.081-.747.081s-.026-.417.341-.671c.387-.268.756-.088.756-.088s.031.414-.351.678z"/>
      <path d="M4.399 16.082s-.192-.094-.445-.045c.092.017.149.045.149.045s.031.414-.351.678a.772.772 0 0 1-.298.127c.143.027.367.03.594-.127.382-.264.351-.678.351-.678z"/>
      <path d="M4.767 18.095a1.975 1.975 0 0 0-.437-.222 3.912 3.912 0 0 0-1.359-.237 1.35 1.35 0 0 1 .319-.726.84.84 0 0 0 .795-.095c.409-.283.381-.72.38-.738a.066.066 0 0 0-.038-.055.658.658 0 0 0-.156-.049 1.3 1.3 0 0 0 .164-.381c.021-.084-.11-.117-.131-.033a1.154 1.154 0 0 1-.185.397.868.868 0 0 0-.517.159.84.84 0 0 0-.282.327c-.118.015-.22.009-.289.001.137-.185.494-.632.895-.866.075-.044.007-.16-.068-.116-.391.227-.731.632-.895.847a1.17 1.17 0 0 1 .336-.889 1.153 1.153 0 0 1 1.025-.338c.006.035.013.092.015.163.002.086.136.085.135-.002a1.025 1.025 0 0 0-.027-.234.069.069 0 0 0-.047-.048 1.16 1.16 0 0 0-.396-.023 1.305 1.305 0 0 0-.865.458l.121-.369a.846.846 0 0 0 .553-.54.866.866 0 0 0-.13-.82.066.066 0 0 0-.063-.022.849.849 0 0 0-.609.565.867.867 0 0 0 .118.788l-.113.344a1.265 1.265 0 0 0-.26-.602 1.301 1.301 0 0 0-.748-.479c-.224-.05-.389-.026-.396-.025a.066.066 0 0 0-.052.042c-.002.005-.047.12-.062.296-.007.087.127.098.134.012.009-.099.028-.177.04-.22a1.16 1.16 0 0 1 .978.457c.167.212.249.459.246.732a1.234 1.234 0 0 1-.024.227c-.266-.496-.644-.877-.66-.894-.061-.062-.157.034-.095.095.004.004.393.397.65.888a1.121 1.121 0 0 1-.881-.444 1.195 1.195 0 0 1-.235-.501c-.017-.085-.149-.059-.132.027.041.201.128.389.261.557a1.273 1.273 0 0 0 1.049.495v1.134a1.469 1.469 0 0 0-.065-.125c.009-.08.042-.55-.389-.89a1.024 1.024 0 0 0-.975-.173.07.07 0 0 0-.042.053c-.003.022-.075.536.398.909.22.173.45.219.63.219.117 0 .213-.019.271-.035.094.164.149.345.166.541a4.34 4.34 0 0 0-.968.119c-.084.021-.052.152.033.131.285-.071.601-.11.94-.115v.155c0 .087.135.087.135 0v-.155c.794.008 1.302.202 1.554.333H1.301c.065-.035.149-.074.253-.114.081-.031.033-.157-.048-.126a2.207 2.207 0 0 0-.358.172c-.143.087-.143.109-.143.135 0 .037.03.067.067.067h3.682c.102 0 .062-.108.011-.143zm-1.086-1.87a.72.72 0 0 1 .651-.098.733.733 0 0 1-.322.577.706.706 0 0 1-.616.099c.133-.124.294-.227.484-.309.08-.034.027-.158-.053-.124-.171.073-.312.16-.428.254a.714.714 0 0 1 .284-.4zm-.508.36c.03 0 .062-.001.096-.004a.928.928 0 0 0-.034.192 1.471 1.471 0 0 0-.27.399v-.605c.047.008.119.017.208.017zm-.033-2.334a.721.721 0 0 1 .467-.466.738.738 0 0 1 .081.656.704.704 0 0 1-.37.418c.087-.258.174-.503.237-.657.033-.08-.092-.131-.125-.051-.065.16-.155.413-.244.678a.726.726 0 0 1-.046-.578zm-1.298 2.555a.895.895 0 0 1-.352-.743.905.905 0 0 1 .803.166.869.869 0 0 1 .32.504c.007.029.011.058.015.084a1.721 1.721 0 0 0-.134-.143c-.232-.218-.463-.309-.473-.313-.081-.032-.13.094-.049.126.002.001.216.085.429.286.068.064.128.132.18.203a.897.897 0 0 1-.739-.169zM6.249 17.171v-2.628h1.973v2.628h-.328v-2.337H6.58v2.337h-.331zm4.326-.991c0 .164-.022.31-.066.438a.878.878 0 0 1-.184.32.763.763 0 0 1-.291.202 1.036 1.036 0 0 1-.379.066.827.827 0 0 1-.648-.268.953.953 0 0 1-.191-.32 1.344 1.344 0 0 1-.066-.438c0-.218.037-.402.11-.552a.779.779 0 0 1 .317-.346.947.947 0 0 1 .49-.121c.179 0 .336.04.471.121a.802.802 0 0 1 .32.346c.079.15.118.334.118.552zm-1.491 0c0 .155.02.29.059.405.042.113.105.2.191.261s.195.092.328.092.242-.031.328-.092.148-.148.188-.261a1.18 1.18 0 0 0 .063-.405c0-.157-.021-.291-.063-.401s-.106-.195-.191-.254a.542.542 0 0 0-.328-.092c-.201 0-.347.066-.438.199s-.136.315-.136.548zm3.433-.982v1.701h.287v.957h-.313v-.685h-1.373v.685h-.309v-.957h.158c.113-.157.206-.328.28-.512.076-.186.133-.38.169-.582.039-.204.06-.406.063-.607h1.038zm-.751.254c-.01.167-.036.34-.077.519a3.46 3.46 0 0 1-.162.508 1.888 1.888 0 0 1-.225.42h.902v-1.447h-.438zm3.103.728c0 .164-.022.31-.066.438a.878.878 0 0 1-.184.32.763.763 0 0 1-.291.202 1.036 1.036 0 0 1-.379.066.827.827 0 0 1-.648-.268.953.953 0 0 1-.191-.32 1.344 1.344 0 0 1-.066-.438c0-.218.037-.402.11-.552a.779.779 0 0 1 .317-.346.947.947 0 0 1 .49-.121c.179 0 .336.04.471.121a.802.802 0 0 1 .32.346c.079.15.118.334.118.552zm-1.491 0c0 .155.02.29.059.405.042.113.106.2.191.261s.195.092.328.092.242-.031.328-.092.148-.148.188-.261a1.18 1.18 0 0 0 .063-.405c0-.157-.021-.291-.063-.401s-.105-.195-.191-.254a.542.542 0 0 0-.328-.092c-.201 0-.347.066-.438.199s-.136.315-.136.548zm2.906-1.019c.243 0 .438.085.585.254.15.169.225.425.225.766 0 .223-.034.412-.103.567a.76.76 0 0 1-.283.346.783.783 0 0 1-.427.114c-.1 0-.19-.014-.269-.041s-.146-.061-.202-.103a.826.826 0 0 1-.14-.144h-.022a3.995 3.995 0 0 1 .022.324v.81h-.324v-2.856h.265l.044.269h.015a.639.639 0 0 1 .339-.265.85.85 0 0 1 .276-.04zm-.059.272a.592.592 0 0 0-.32.077c-.081.049-.14.124-.177.225s-.056.228-.059.383v.063c0 .162.017.299.052.412s.092.199.173.258a.577.577 0 0 0 .339.088c.12 0 .218-.033.294-.099a.572.572 0 0 0 .173-.269c.039-.115.059-.247.059-.394 0-.226-.044-.406-.133-.541-.086-.135-.22-.202-.401-.202zm3.063.747c0 .164-.022.31-.066.438a.878.878 0 0 1-.184.32.755.755 0 0 1-.291.202 1.036 1.036 0 0 1-.379.066.827.827 0 0 1-.648-.268.953.953 0 0 1-.191-.32 1.344 1.344 0 0 1-.066-.438c0-.218.037-.402.11-.552a.782.782 0 0 1 .316-.346.95.95 0 0 1 .49-.121c.179 0 .336.04.471.121a.802.802 0 0 1 .32.346c.079.15.118.334.118.552zm-1.49 0c0 .155.02.29.059.405.042.113.106.2.191.261s.195.092.328.092c.132 0 .242-.031.328-.092s.148-.148.188-.261a1.18 1.18 0 0 0 .063-.405c0-.157-.021-.291-.063-.401s-.106-.195-.191-.254a.542.542 0 0 0-.328-.092c-.201 0-.347.066-.438.199s-.136.315-.136.548zm4.262-.982-.813.957.883 1.016h-.368l-.854-1.001v1.001h-.302V16.17l-.854 1.001h-.368l.883-1.016-.814-.957h.353l.799.957v-.957h.302v.957l.802-.957h.35zm.681 0v.821h1.071v-.821h.324v1.973h-.324v-.88h-1.071v.88h-.324v-1.973h.324zm2.288 1.203c0 .022-.001.054-.004.096 0 .039-.001.082-.004.129l-.007.129-.007.096 1.056-1.653h.398v1.973h-.302v-1.318l.007-.188c.002-.064.005-.112.007-.144l-1.049 1.649h-.401v-1.973h.306v1.204zm3.19-1.203h.353l-.843.95.913 1.023h-.376l-.891-1.001v1.001h-.324v-1.973h.324v.957l.843-.957zm1.05 1.203c0 .022-.001.054-.004.096 0 .039-.001.082-.004.129l-.007.129-.007.096 1.056-1.653h.398v1.973h-.302v-1.318l.007-.188c.002-.064.005-.112.007-.144l-1.049 1.649h-.401v-1.973h.306v1.204z"/>
    </symbol>
    <symbol id="icon-Company-Logo-1" viewBox="0 0 32 32">
      <path fill="#f6cc90" d="M3.207 17.949c0-.003.47-.401 1.578-.401 1.076 0 1.578.399 1.578.401H3.207z" style="fill:var(--color1, #f6cc90)"/>
      <path fill="#f0c17f" d="M4.785 17.548c-.069 0-.135.002-.199.004.943.044 1.384.395 1.384.397h.393c0-.003-.502-.401-1.578-.401z" style="fill:var(--color2, #f0c17f)"/>
      <path fill="#c5e866" d="M5.501 14.771c-.128.372-.474.436-.474.436s-.229-.274-.104-.637c.132-.382.478-.446.478-.446s.231.27.101.647z" style="fill:var(--color3, #c5e866)"/>
      <path fill="#b2d94b" d="M5.4 14.124s-.091.017-.198.085a.69.69 0 0 1 .045.562.667.667 0 0 1-.275.352c.029.054.055.085.055.085s.346-.064.474-.436c.13-.377-.101-.647-.101-.647z" style="fill:var(--color4, #b2d94b)"/>
      <path fill="#9cc042" d="M5.156 16.521c-.211.03-.366-.013-.366-.013s-.134-.539.285-.96c.442-.443.968-.297.968-.297s.115.44-.19.848z" style="fill:var(--color5, #9cc042)"/>
      <path fill="#85aa18" d="M6.043 15.251s-.141-.039-.338-.015c.053.007.084.015.084.015s.115.44-.19.849l-.697.422-.023.003c.066.008.163.013.277-.003l.697-.422c.306-.409.19-.848.19-.848z" style="fill:var(--color6, #85aa18)"/>
      <path fill="#c5e866" d="M4.287 16.239c.374.295.31.718.31.718s-.404.155-.769-.133c-.384-.303-.32-.726-.32-.726s.399-.159.779.14z" style="fill:var(--color3, #c5e866)"/>
      <path fill="#9cc042" d="M3.858 15.63c.377.48.916.398.916.398s.197-.519-.17-.987c-.387-.493-.926-.41-.926-.41s-.202.513.18.999z" style="fill:var(--color5, #9cc042)"/>
      <path fill="#c5e866" d="M5.755 16.739c-.323.224-.64.07-.64.07s-.022-.357.293-.575c.332-.229.648-.075.648-.075s.027.354-.301.581z" style="fill:var(--color3, #c5e866)"/>
      <path fill="#b2d94b" d="M6.056 16.158s-.165-.08-.382-.039c.079.015.128.039.128.039s.027.354-.301.581a.675.675 0 0 1-.255.109.661.661 0 0 0 .509-.109c.328-.227.301-.581.301-.581z" style="fill:var(--color4, #b2d94b)"/>
      <path fill="#060606" d="M6.372 17.884a1.732 1.732 0 0 0-.374-.19 3.354 3.354 0 0 0-1.165-.203 1.192 1.192 0 0 1 .274-.622.715.715 0 0 0 .681-.081c.351-.243.327-.617.326-.633a.06.06 0 0 0-.032-.048.571.571 0 0 0-.134-.042c.064-.101.112-.211.141-.327.018-.072-.094-.1-.112-.028a.997.997 0 0 1-.158.34.733.733 0 0 0-.443.137.713.713 0 0 0-.241.28 1.013 1.013 0 0 1-.247.001c.117-.158.423-.542.767-.742.064-.037.006-.137-.058-.1-.335.195-.626.542-.767.726a1 1 0 0 1 .288-.762.994.994 0 0 1 .878-.29c.005.03.011.079.013.14.001.074.117.073.115-.002a.906.906 0 0 0-.023-.201.059.059 0 0 0-.04-.041.987.987 0 0 0-.339-.019 1.119 1.119 0 0 0-.741.393l.104-.316a.723.723 0 0 0 .474-.463.739.739 0 0 0-.112-.703.056.056 0 0 0-.054-.019c-.015.003-.381.075-.522.484-.117.34.05.605.101.675l-.097.295a1.084 1.084 0 0 0-.223-.516 1.123 1.123 0 0 0-.641-.411.99.99 0 0 0-.339-.021.06.06 0 0 0-.045.036.963.963 0 0 0-.053.254c-.006.074.109.084.115.01a.942.942 0 0 1 .035-.189.995.995 0 0 1 .838.392.971.971 0 0 1 .211.628c-.001.076-.01.143-.02.194a3.665 3.665 0 0 0-.566-.766c-.053-.053-.134.029-.082.082.003.003.337.341.558.761a.965.965 0 0 1-.756-.381 1.018 1.018 0 0 1-.201-.429c-.015-.073-.128-.05-.113.023a1.14 1.14 0 0 0 .856.878c.087.019.177.028.267.025v.972a1.078 1.078 0 0 0-.056-.107.866.866 0 0 0-.333-.762.88.88 0 0 0-.836-.149.06.06 0 0 0-.036.045.873.873 0 0 0 .342.78.882.882 0 0 0 .772.157c.08.14.128.295.142.464a3.68 3.68 0 0 0-.829.102c-.072.018-.044.13.028.112.244-.061.515-.094.806-.099v.133c0 .074.115.074.115 0v-.133c.681.007 1.116.173 1.332.286H3.407c.056-.03.128-.064.216-.097.07-.026.029-.134-.041-.108-.144.055-.246.11-.307.147-.123.075-.123.093-.123.116 0 .032.026.058.058.058h3.156c.088 0 .053-.092.01-.123zm-.931-1.603a.618.618 0 0 1 .558-.084.626.626 0 0 1-.276.494.604.604 0 0 1-.528.085c.114-.107.252-.195.415-.265.068-.029.023-.135-.045-.106a1.575 1.575 0 0 0-.367.218.612.612 0 0 1 .244-.343zm-.436.309.082-.003a.808.808 0 0 0-.029.165 1.264 1.264 0 0 0-.231.342v-.518c.04.007.102.015.178.015zm-.028-2.001a.62.62 0 0 1 .4-.399c.05.074.165.285.069.562a.604.604 0 0 1-.317.358c.075-.222.149-.431.203-.563.028-.069-.079-.113-.107-.044-.056.137-.132.354-.209.581a.62.62 0 0 1-.039-.496zm-1.113 2.19a.767.767 0 0 1-.301-.637.771.771 0 0 1 .688.143.747.747 0 0 1 .286.504 1.383 1.383 0 0 0-.52-.39c-.069-.027-.111.081-.042.108.002.001.185.073.368.245.058.055.11.113.155.174a.77.77 0 0 1-.634-.145z" style="fill:var(--color7, #060606)"/>
      <path d="M7.642 17.091v-2.253h1.691v2.253h-.281v-2.003H7.926v2.003h-.284zm3.708-.848c0 .141-.019.266-.057.375a.742.742 0 0 1-.158.274.652.652 0 0 1-.249.174.883.883 0 0 1-.325.057.82.82 0 0 1-.309-.057c-.095-.04-.177-.098-.246-.174s-.124-.167-.164-.274a1.14 1.14 0 0 1-.057-.375c0-.187.032-.345.095-.473a.675.675 0 0 1 .271-.297.818.818 0 0 1 .42-.104c.154 0 .288.035.404.104a.676.676 0 0 1 .274.297c.067.128.101.286.101.473zm-1.278 0c0 .133.017.248.05.347.036.097.09.171.164.224s.167.079.281.079c.114 0 .207-.026.281-.079s.127-.127.161-.224c.036-.099.054-.215.054-.347 0-.135-.018-.249-.054-.344s-.09-.167-.164-.218a.46.46 0 0 0-.281-.079c-.172 0-.298.057-.375.17s-.117.27-.117.47zm2.942-.843v1.458h.246v.82h-.268v-.587h-1.177v.587h-.265v-.82h.136a2.05 2.05 0 0 0 .24-.439 2.898 2.898 0 0 0 .199-1.019h.89zm-.643.218a2.59 2.59 0 0 1-.066.445 2.905 2.905 0 0 1-.139.435 1.646 1.646 0 0 1-.192.36h.773v-1.24h-.375zm2.659.625c0 .141-.019.266-.057.375a.742.742 0 0 1-.158.274.652.652 0 0 1-.249.174.883.883 0 0 1-.325.057.82.82 0 0 1-.309-.057c-.095-.04-.177-.098-.246-.174s-.124-.167-.164-.274a1.14 1.14 0 0 1-.057-.375c0-.187.032-.345.095-.473a.675.675 0 0 1 .271-.297.818.818 0 0 1 .42-.104c.154 0 .288.035.404.104a.676.676 0 0 1 .274.297c.067.128.101.286.101.473zm-1.277 0c0 .133.017.248.05.347.036.097.09.171.164.224s.167.079.281.079c.114 0 .207-.026.281-.079s.127-.127.161-.224c.036-.099.054-.215.054-.347 0-.135-.018-.249-.054-.344s-.09-.167-.164-.218a.46.46 0 0 0-.281-.079c-.172 0-.298.057-.375.17s-.117.27-.117.47zm2.49-.874c.208 0 .375.073.502.218.128.145.192.364.192.656 0 .191-.029.353-.088.486a.656.656 0 0 1-.243.297.672.672 0 0 1-.366.098.675.675 0 0 1-.404-.123.772.772 0 0 1-.12-.123h-.019l.013.136c.005.055.006.102.006.142v.694h-.278v-2.448h.227l.038.23h.013a.55.55 0 0 1 .29-.228.73.73 0 0 1 .237-.035zm-.05.233a.503.503 0 0 0-.274.066c-.069.042-.12.106-.151.192s-.048.196-.05.328v.054c0 .139.015.257.044.353s.079.17.148.221c.072.05.168.076.29.076a.368.368 0 0 0 .252-.085.494.494 0 0 0 .148-.23c.034-.099.05-.211.05-.338 0-.194-.038-.348-.114-.464-.074-.116-.188-.174-.344-.174zm2.626.641c0 .141-.019.266-.057.375a.742.742 0 0 1-.158.274.66.66 0 0 1-.249.174.883.883 0 0 1-.325.057.82.82 0 0 1-.309-.057c-.095-.04-.177-.098-.246-.174s-.124-.167-.164-.274a1.14 1.14 0 0 1-.057-.375c0-.187.032-.345.095-.473a.675.675 0 0 1 .271-.297.818.818 0 0 1 .42-.104c.154 0 .288.035.404.104a.684.684 0 0 1 .275.297c.067.128.101.286.101.473zm-1.278 0c0 .133.017.248.051.347.036.097.09.171.164.224s.167.079.281.079.207-.026.281-.079a.453.453 0 0 0 .161-.224c.036-.099.054-.215.054-.347 0-.135-.018-.249-.054-.344s-.091-.167-.164-.218a.46.46 0 0 0-.281-.079c-.172 0-.298.057-.376.17s-.117.27-.117.47zm3.653-.843-.697.82.757.871h-.315l-.732-.858v.858h-.259v-.858l-.732.858H18.9l.757-.871-.697-.82h.303l.685.82v-.82h.259v.82l.688-.82h.3zm.584 0v.704h.918V15.4h.278v1.691h-.278v-.754h-.918v.754H21.5V15.4h.278zm1.961 1.032-.003.082-.003.11a24.748 24.748 0 0 1-.012.192l.905-1.417h.341v1.691h-.259v-1.13l.006-.161.006-.123-.899 1.413h-.344v-1.691h.262v1.032zm2.734-1.032h.303l-.723.814.783.877h-.322l-.763-.858v.858h-.278V15.4h.278v.82l.722-.82zm.9 1.032-.003.082-.003.11a24.748 24.748 0 0 1-.012.192l.905-1.417h.341v1.691h-.259v-1.13l.006-.161.006-.123-.899 1.413h-.344v-1.691h.262v1.032z" style="fill:var(--color8, #000)"/>
    </symbol>
    <symbol id="icon-edit" viewBox="0 0 32 32">
      <path d="M6.064 25.928h1.475l15.327-15.294-1.459-1.467L6.064 24.469v1.459zm-1.128 2.271a1.102 1.102 0 0 1-1.135-1.135v-2.561c0-.304.062-.601.187-.891s.289-.537.493-.742L22.952 4.424c.183-.188.404-.335.661-.441s.525-.158.803-.158c.255 0 .51.053.765.158s.491.25.707.433l1.73 1.706c.205.216.355.453.449.711s.141.517.141.777-.053.524-.158.79-.25.494-.433.682L9.146 27.52c-.21.204-.458.369-.746.493s-.583.187-.887.187H4.936zM22.14 9.893l-.733-.725 1.459 1.467-.725-.741z"/>
    </symbol>
    <symbol id="icon-Facebook" viewBox="0 0 32 32">
      <path d="M29.333 16.405C29.333 8.996 23.364 2.99 16 2.99S2.667 8.996 2.667 16.405c0 6.696 4.876 12.245 11.25 13.252v-9.374h-3.385v-3.878h3.385V13.45c0-3.362 1.991-5.219 5.036-5.219 1.459 0 2.985.262 2.985.262v3.301h-1.681c-1.656 0-2.173 1.034-2.173 2.095v2.516h3.698l-.591 3.878h-3.107v9.374c6.374-1.006 11.25-6.556 11.25-13.252z"/>
    </symbol>
    <symbol id="icon-Favicon" viewBox="0 0 32 32">
      <path fill="#e8eeff" d="M0 0h32v32H0V0z" style="fill:var(--color9, #e8eeff)"/>
      <path fill="#f6cc90" d="M5 29c0-.019 3.276-3 11-3 7.503 0 11 2.981 11 3H5z" style="fill:var(--color1, #f6cc90)"/>
      <path fill="#f0c17f" d="M16.343 26c-.464 0-.912.012-1.343.033 6.368.325 9.349 2.949 9.349 2.967H27c0-.019-3.388-3-10.657-3z" style="fill:var(--color2, #f0c17f)"/>
      <path fill="#c5e866" d="M20.758 7.18C19.975 9.586 17.864 10 17.864 10s-1.399-1.773-.636-4.117C18.032 3.414 20.143 3 20.143 3s1.409 1.742.615 4.18z" style="fill:var(--color3, #c5e866)"/>
      <path fill="#b2d94b" d="M20.012 3s-.643.11-1.393.551c.412.699.924 2.01.317 3.628a4.378 4.378 0 0 1-1.935 2.272c.206.35.386.548.386.548s2.432-.414 3.335-2.82c.914-2.437-.709-4.18-.709-4.18z" style="fill:var(--color4, #b2d94b)"/>
      <path fill="#9cc042" d="M18.687 18.935c-1.466.184-2.545-.08-2.545-.08s-.933-3.306 1.983-5.888c3.072-2.72 6.727-1.825 6.727-1.825s.802 2.698-1.323 5.206z" style="fill:var(--color5, #9cc042)"/>
      <path fill="#85aa18" d="M24.856 11.141s-.952-.24-2.284-.094c.36.041.57.094.57.094s.779 2.698-1.285 5.206l-4.703 2.588a4.568 4.568 0 0 1-.154.018c.444.05 1.102.081 1.869-.018l4.703-2.588c2.063-2.508 1.285-5.206 1.285-5.206z" style="fill:var(--color6, #85aa18)"/>
      <path fill="#c5e866" d="M12.706 17.162c2.73 1.88 2.264 4.573 2.264 4.573s-2.947.985-5.606-.845c-2.801-1.928-2.335-4.622-2.335-4.622s2.912-1.01 5.677.894z" style="fill:var(--color3, #c5e866)"/>
      <path fill="#9cc042" d="M9.553 13.423c2.508 3.07 6.097 2.542 6.097 2.542s1.309-3.319-1.133-6.31c-2.573-3.15-6.162-2.622-6.162-2.622s-1.342 3.279 1.198 6.39z" style="fill:var(--color5, #9cc042)"/>
      <path fill="#c5e866" d="M22.759 21.034c-2.404 1.782-4.757.554-4.757.554s-.167-2.848 2.174-4.584c2.466-1.828 4.819-.6 4.819-.6s.198 2.825-2.237 4.63z" style="fill:var(--color3, #c5e866)"/>
      <path fill="#b2d94b" d="M24.996 16.403s-1.221-.64-2.824-.308c.585.119.944.308.944.308s.197 2.825-2.227 4.63a4.795 4.795 0 0 1-1.89.87c.904.185 2.327.204 3.769-.87 2.424-1.805 2.227-4.63 2.227-4.63z" style="fill:var(--color4, #b2d94b)"/>
      <path fill="#060606" d="M26.698 28.189c-.768-.531-1.645-.926-2.519-1.256-1.578-.595-4.203-1.301-7.84-1.341a7.559 7.559 0 0 1 .527-1.989 7.623 7.623 0 0 1 1.318-2.117 4.936 4.936 0 0 0 4.585-.537c2.362-1.6 2.2-4.07 2.192-4.175a.38.38 0 0 0-.217-.314 4.07 4.07 0 0 0-.903-.278 7.218 7.218 0 0 0 .947-2.157c.122-.477-.632-.661-.754-.185a6.482 6.482 0 0 1-1.065 2.245c-.841-.019-1.898.168-2.981.901a4.758 4.758 0 0 0-1.625 1.848 6.912 6.912 0 0 1-1.665.006c.79-1.044 2.848-3.573 5.165-4.895.433-.247.042-.906-.391-.658-2.255 1.286-4.217 3.574-5.163 4.79-.055-1.186.155-3.277 1.936-5.027 1.161-1.141 2.542-1.802 4.106-1.965a6.647 6.647 0 0 1 1.805.054c.035.199.077.52.084.923.009.487.786.481.777-.013-.014-.79-.149-1.304-.155-1.326a.384.384 0 0 0-.272-.27c-.039-.011-.971-.258-2.285-.128-1.21.12-2.992.598-4.61 2.188a7.467 7.467 0 0 0-.38.403c.218-.659.456-1.371.7-2.087.704-.21 2.442-.932 3.189-3.054.937-2.664-.682-4.56-.751-4.64a.393.393 0 0 0-.366-.127c-.104.019-2.563.494-3.512 3.194-.788 2.241.335 3.993.678 4.455-.227.667-.448 1.328-.652 1.945a7.115 7.115 0 0 0-1.499-3.403c-1.415-1.768-3.127-2.448-4.315-2.708-1.29-.282-2.245-.145-2.285-.139a.389.389 0 0 0-.303.237c-.011.027-.268.678-.356 1.676-.043.489.731.555.774.066.05-.562.159-1.001.233-1.246a6.676 6.676 0 0 1 1.798.156c1.533.343 2.826 1.16 3.841 2.428a6.326 6.326 0 0 1 1.418 4.142 7.032 7.032 0 0 1-.137 1.282c-1.537-2.806-3.714-4.962-3.81-5.056-.354-.348-.904.19-.55.538.023.023 2.267 2.246 3.753 5.022a6.898 6.898 0 0 1-1.303-.155c-1.522-.33-2.794-1.123-3.782-2.356a6.662 6.662 0 0 1-1.354-2.833c-.099-.482-.861-.331-.762.151a7.417 7.417 0 0 0 1.504 3.153 7.36 7.36 0 0 0 4.259 2.637 7.522 7.522 0 0 0 1.796.165v6.413a8.062 8.062 0 0 0-.377-.704c.053-.451.245-3.11-2.242-5.03-2.698-2.084-5.507-1.027-5.625-.981a.384.384 0 0 0-.241.297c-.019.123-.432 3.033 2.299 5.143a5.853 5.853 0 0 0 3.633 1.236c.674 0 1.226-.108 1.564-.195.541.926.861 1.948.957 3.059-2.011.033-3.888.26-5.584.675-.486.119-.298.858.188.739 1.644-.403 3.468-.622 5.427-.653v.875c0 .491.777.491.777 0v-.878c4.583.045 7.513 1.144 8.969 1.884H6.71c.378-.197.861-.42 1.457-.642.469-.175.192-.887-.276-.712-.968.361-1.657.727-2.065.97-.828.494-.828.614-.828.765 0 .21.174.381.389.381h21.245c.591 0 .358-.608.065-.811zm-6.269-10.576c1.64-1.111 3.197-.745 3.757-.552a4.125 4.125 0 0 1-1.86 3.262 4.148 4.148 0 0 1-3.552.562c.766-.703 1.698-1.286 2.791-1.745.461-.194.155-.894-.306-.7-.987.414-1.8.907-2.471 1.436a4.021 4.021 0 0 1 1.642-2.262zm-2.931 2.037c.174 0 .36-.006.554-.02a5.084 5.084 0 0 0-.195 1.087 8.411 8.411 0 0 0-1.558 2.255v-3.419c.273.046.688.097 1.2.097zm-.191-13.201A4.136 4.136 0 0 1 20 3.814a4.086 4.086 0 0 1 .467 3.711 4.038 4.038 0 0 1-2.133 2.365c.505-1.462 1.003-2.846 1.365-3.716.189-.455-.53-.743-.72-.288-.377.907-.892 2.336-1.408 3.832-.353-.663-.764-1.85-.265-3.269zM9.816 20.897c-.991-.765-1.631-1.74-1.902-2.896a4.87 4.87 0 0 1-.128-1.308c.662-.182 2.694-.558 4.635.941.964.744 1.584 1.703 1.844 2.85.038.167.065.326.084.474a8.905 8.905 0 0 0-.776-.808c-1.341-1.233-2.671-1.749-2.728-1.77-.467-.178-.749.532-.282.71.012.005 1.246.483 2.478 1.616.394.362.74.746 1.041 1.15-.861.172-2.632.304-4.266-.958z" style="fill:var(--color7, #060606)"/>
    </symbol>
    <symbol id="icon-Instagram" viewBox="0 0 32 32">
      <path d="M16.006 6.488c3.206 0 3.585.014 4.846.071 1.172.052 1.804.248 2.227.412.558.216.961.478 1.378.895.422.422.679.82.9 1.378.164.422.361 1.059.412 2.226.056 1.266.071 1.645.071 4.847s-.014 3.585-.071 4.847c-.052 1.172-.248 1.804-.412 2.227a3.702 3.702 0 0 1-.895 1.377c-.422.422-.82.679-1.377.9-.422.164-1.06.361-2.227.413-1.266.056-1.645.07-4.847.07s-3.585-.014-4.847-.07c-1.172-.052-1.804-.248-2.226-.413a3.714 3.714 0 0 1-1.378-.895 3.767 3.767 0 0 1-.9-1.378c-.164-.422-.361-1.06-.412-2.226-.056-1.266-.071-1.645-.071-4.847s.014-3.585.071-4.847c.052-1.172.248-1.804.412-2.226.216-.558.478-.961.895-1.378.422-.422.82-.679 1.378-.9.422-.164 1.059-.361 2.226-.412 1.261-.056 1.641-.071 4.847-.071h.001zm0-2.16c-3.258 0-3.665.014-4.945.071-1.275.056-2.151.262-2.91.558a5.847 5.847 0 0 0-2.127 1.387 5.883 5.883 0 0 0-1.387 2.123c-.295.764-.502 1.636-.558 2.91-.056 1.285-.071 1.692-.071 4.949s.014 3.665.071 4.945c.056 1.275.262 2.151.558 2.91a5.86 5.86 0 0 0 1.387 2.127 5.876 5.876 0 0 0 2.123 1.383c.764.295 1.636.502 2.91.558 1.279.056 1.687.071 4.945.071s3.665-.014 4.945-.071c1.275-.056 2.151-.262 2.91-.558.787-.305 1.458-.717 2.123-1.383s1.078-1.335 1.383-2.123c.295-.764.502-1.635.558-2.91.056-1.279.07-1.687.07-4.945s-.014-3.665-.07-4.945c-.056-1.275-.263-2.151-.558-2.91a5.622 5.622 0 0 0-1.373-2.133 5.876 5.876 0 0 0-2.123-1.383c-.764-.295-1.636-.502-2.91-.558-1.284-.061-1.692-.075-4.949-.075l-.001.001z"/>
      <path d="M16.006 10.163a6.164 6.164 0 1 0 6.163 6.163 6.165 6.165 0 0 0-6.163-6.163zm0 10.161a3.998 3.998 0 1 1 0-7.996 3.998 3.998 0 0 1 0 7.996zM23.851 9.919a1.439 1.439 0 1 1-2.877 0 1.439 1.439 0 0 1 2.877 0z"/>
    </symbol>
    <symbol id="icon-keyboard_arrow_down" viewBox="0 0 32 32">
      <path stroke-width="1.333" d="M9.449 12.031c.134 0 .237.041.341.145l6.208 6.244 6.243-6.244c.104-.103.192-.133.299-.129a.491.491 0 0 1 .349.163c.104.104.145.207.145.341s-.041.236-.145.34L16.33 19.45a.527.527 0 0 1-.167.122.415.415 0 0 1-.165.031.499.499 0 0 1-.09-.009l-.077-.022-.07-.04a.681.681 0 0 1-.095-.082l-6.592-6.591a.392.392 0 0 1-.129-.318.507.507 0 0 1 .163-.365.447.447 0 0 1 .34-.145z"/>
    </symbol>
    <symbol id="icon-keyboard_arrow_up" viewBox="0 0 32 32">
      <path stroke-width="1.333" d="M16 11.605c.125 0 .227.038.333.145l6.591 6.592c.109.109.145.208.145.324s-.035.215-.145.324c-.104.104-.207.145-.341.145s-.236-.041-.34-.145l-.001-.001-6.243-6.207-6.241 6.241c-.104.104-.192.133-.299.129a.493.493 0 0 1-.349-.161c-.104-.104-.145-.207-.145-.341s.04-.237.145-.341l6.559-6.559a.438.438 0 0 1 .332-.145z"/>
    </symbol>
    <symbol id="icon-logout" viewBox="0 0 32 32">
      <path d="M6.072 28.199c-.613 0-1.145-.225-1.595-.676s-.676-.982-.676-1.595V6.071c0-.616.225-1.149.676-1.601s.982-.678 1.595-.678h8.807c.321 0 .59.111.808.334s.327.495.327.816c0 .322-.109.59-.327.806s-.487.323-.808.323H6.072v19.857h8.807c.321 0 .59.11.808.329s.327.49.327.812c0 .322-.109.591-.327.806s-.487.323-.808.323H6.072zm17.784-11.063H13.088c-.32 0-.59-.11-.808-.329s-.327-.49-.327-.812c0-.322.109-.591.327-.806s.488-.323.808-.323h10.701l-2.564-2.564c-.227-.228-.334-.495-.323-.8s.13-.571.357-.795c.226-.229.496-.342.81-.34s.585.117.815.344l4.529 4.529c.221.229.332.494.332.797s-.111.568-.332.794l-4.496 4.496c-.222.226-.486.335-.792.327s-.577-.126-.812-.352c-.218-.227-.328-.497-.331-.811s.112-.586.344-.813l2.531-2.539z"/>
    </symbol>
    <symbol id="icon-menu" viewBox="0 0 32 32">
      <path d="M4.936 24.295c-.321 0-.59-.11-.808-.329s-.327-.493-.327-.82c0-.322.109-.591.327-.807s.488-.323.808-.323h22.127c.321 0 .591.11.812.329s.331.49.331.812a1.121 1.121 0 0 1-1.143 1.137H4.936zm0-7.159c-.321 0-.59-.11-.808-.329s-.327-.49-.327-.812c0-.322.109-.591.327-.806s.488-.323.808-.323h22.127c.321 0 .591.11.812.329s.331.49.331.812c0 .322-.11.591-.331.806s-.492.323-.812.323H4.936zm0-7.152c-.321 0-.59-.11-.808-.329s-.327-.493-.327-.82c0-.322.109-.591.327-.806s.488-.323.808-.323h22.127c.321 0 .591.11.812.329s.331.49.331.812a1.117 1.117 0 0 1-1.143 1.138H4.936z"/>
    </symbol>
    <symbol id="icon-travel_luggage_and_bags" viewBox="0 0 32 32">
      <path d="M6.467 25.762v-15.69c0-.632.221-1.17.663-1.614s.978-.665 1.608-.665h3.341V3.587c0-.325.119-.608.358-.851s.521-.364.846-.364h5.435c.325 0 .607.121.846.364s.358.526.358.851v4.206h3.341c.632 0 1.17.222 1.614.665s.665.981.665 1.614v15.69c0 .63-.222 1.166-.665 1.608s-.981.663-1.614.663v.548c0 .297-.099.546-.298.747s-.448.301-.75.301c-.305 0-.566-.093-.784-.279s-.306-.442-.263-.769v-.548H10.836v.548c0 .297-.099.546-.298.747s-.449.301-.75.301c-.305 0-.566-.093-.785-.279s-.306-.442-.263-.769v-.548c-.63 0-1.166-.221-1.608-.663s-.663-.978-.663-1.608zm7.7-17.969h3.667V4.46h-3.667v3.333zM16 15.778c1.276 0 2.536-.142 3.779-.425s2.404-.763 3.482-1.436v-3.844H8.738v3.846c1.078.673 2.239 1.151 3.483 1.435s2.503.425 3.779.425zm-1.048 2.651v-.43c-1.112-.067-2.191-.246-3.236-.538s-2.038-.722-2.978-1.289v9.59h14.523v-9.598c-.939.567-1.932.997-2.978 1.289s-2.124.474-3.236.546v.43c0 .297-.1.546-.299.747s-.451.301-.754.301-.552-.099-.748-.298-.294-.449-.294-.75z"/>
    </symbol>
    <symbol id="icon-wand_stars" viewBox="0 0 32 32">
      <path d="m21.848 16.962-3.113 5.02c-.178.294-.429.408-.754.341s-.532-.258-.621-.575l-1.092-4.41-10.08 10.031c-.227.232-.492.348-.796.348s-.569-.116-.796-.348c-.226-.227-.34-.492-.34-.796s.113-.569.34-.796l10.047-10.039-4.425-1.092c-.316-.089-.507-.296-.571-.62s.048-.579.337-.762l5.02-3.146-.408-5.869c-.022-.339.118-.586.421-.741s.579-.122.829.1l4.504 3.788 5.461-2.189c.311-.111.58-.053.808.175s.286.497.175.808l-2.222 5.461 3.788 4.512c.222.25.261.526.117.829s-.386.443-.725.421l-5.902-.449zM4.215 7.999c-.122-.116-.183-.253-.183-.411s.061-.297.183-.418l1.629-1.629c.116-.116.253-.175.41-.175s.297.058.419.175l1.588 1.596c.122.122.182.26.182.414s-.061.293-.182.415L6.632 9.595c-.122.122-.26.182-.415.182s-.293-.061-.414-.182L4.215 7.999zm14.434 10.05 2.052-3.304 3.896.292-2.536-2.987 1.468-3.604-3.604 1.46L16.93 7.37l.3 3.896-3.312 2.077 3.796.943.935 3.763zm5.386 9.736-1.629-1.621c-.122-.122-.177-.26-.166-.414s.077-.293.199-.415l1.596-1.588c.116-.122.253-.183.411-.183s.297.061.418.183l1.629 1.621c.116.122.169.26.158.415s-.075.293-.191.414l-1.596 1.588c-.122.122-.26.183-.414.183s-.293-.061-.415-.183z"/>
    </symbol>
    <symbol id="icon-X" viewBox="0 0 32 32">
      <path d="M22.901 5.657h3.68l-8.04 9.037L28 26.991h-7.406l-5.801-7.458-6.637 7.458H4.474l8.6-9.666L4 5.657h7.594l5.243 6.817 6.064-6.817zM21.61 24.824h2.039L10.486 7.709H8.298L21.61 24.824z"/>
    </symbol>
    <symbol id="icon-Youtube" viewBox="0 0 32 32">
      <path d="M28.791 9.604a3.345 3.345 0 0 0-2.35-2.354C24.353 6.677 16 6.667 16 6.667s-8.352-.009-10.441.539a3.416 3.416 0 0 0-2.354 2.371c-.551 2.088-.556 6.419-.556 6.419s-.005 4.352.541 6.419a3.341 3.341 0 0 0 2.351 2.353c2.109.573 10.44.583 10.44.583s8.353.009 10.441-.537a3.356 3.356 0 0 0 2.356-2.35c.552-2.087.556-6.416.556-6.416s.027-4.353-.543-6.441zM13.328 20.007l.007-8 6.943 4.007-6.949 3.993z"/>
    </symbol>
  </defs>
</svg>
