<svg xmlns="http://www.w3.org/2000/svg" aria-hidden="true" style="position:absolute;width:0;height:0;overflow:hidden">
  <defs>
    <symbol id="icon-arrow_back" viewBox="0 0 32 32">
      <path stroke-width="1.333" d="M16.01 6.249c.114 0 .212.035.322.145a.45.45 0 0 1 .145.332.425.425 0 0 1-.145.324L7.85 15.532h17.88a.451.451 0 0 1 .477.469c0 .16-.046.255-.129.337a.457.457 0 0 1-.348.132H7.85l8.474 8.473c.11.11.147.212.148.335v.001a.4.4 0 0 1-.074.246l-.069.082a.415.415 0 0 1-.323.142.457.457 0 0 1-.341-.151l-9.264-9.264a.542.542 0 0 1-.121-.167v-.001c-.02-.048-.031-.102-.031-.165s.012-.116.031-.163v-.001a.554.554 0 0 1 .121-.167l9.267-9.267a.466.466 0 0 1 .342-.152z"/>
    </symbol>
    <symbol id="icon-arrow_forward" viewBox="0 0 32 32">
      <path stroke-width="1.333" d="M15.993 6.253a.432.432 0 0 1 .259.081l.082.07 9.264 9.264a.542.542 0 0 1 .121.167v.001c.02.048.031.102.031.165s-.012.116-.031.163v.001a.567.567 0 0 1-.121.167l-9.272 9.264c-.122.12-.227.155-.337.155-.108 0-.204-.033-.315-.147l-.007-.007-.069-.081c-.056-.079-.075-.157-.075-.243s.02-.163.075-.242l.069-.081 8.482-8.482H6.269c-.163 0-.259-.047-.34-.128h-.001a.44.44 0 0 1-.128-.341c0-.162.046-.26.128-.341h.001c.081-.081.177-.127.34-.128h17.88l-8.474-8.474a.467.467 0 0 1-.141-.246l-.008-.09a.423.423 0 0 1 .141-.326l.001-.001a.42.42 0 0 1 .324-.142z"/>
    </symbol>
    <symbol id="icon-bookmark" viewBox="0 0 32 32">
      <path d="m16 24.223-6.358 2.72c-.757.326-1.475.265-2.155-.184s-1.02-1.083-1.02-1.905V5.904c0-.616.225-1.149.676-1.601s.982-.678 1.595-.678h14.523c.616 0 1.149.226 1.601.678s.678.985.678 1.601v18.95c0 .821-.341 1.456-1.024 1.905s-1.402.51-2.159.184l-6.358-2.72zm0-2.429 7.262 3.061V5.905H8.739v18.95l7.262-3.061zm0-15.889z"/>
    </symbol>
    <symbol id="icon-chevron_left" viewBox="0 0 32 32">
      <path stroke-width="1.333" d="M18.716 8.865c.134 0 .237.041.341.145s.145.207.145.341-.04.237-.145.341l-6.276 6.276 6.276 6.275c.104.104.133.193.129.301a.492.492 0 0 1-.161.348c-.104.104-.207.146-.341.146s-.237-.042-.341-.146l-6.592-6.591a.743.743 0 0 1-.082-.096l-.039-.07a.415.415 0 0 1-.031-.165c0-.032.002-.063.008-.09l.023-.077a.548.548 0 0 1 .121-.167l6.626-6.625a.447.447 0 0 1 .34-.145z"/>
    </symbol>
    <symbol id="icon-chevron_right" viewBox="0 0 32 32">
      <path stroke-width="1.333" d="M12.516 8.897c.134 0 .237.041.341.145l6.592 6.592a.547.547 0 0 1 .121.165v.001c.02.047.031.1.031.165s-.012.118-.031.165v.001a.547.547 0 0 1-.121.165l-6.625 6.625c-.104.104-.193.133-.301.129a.492.492 0 0 1-.348-.161c-.104-.104-.146-.207-.146-.341s.042-.237.146-.341l6.242-6.242-6.276-6.276c-.104-.104-.133-.192-.129-.299a.491.491 0 0 1 .163-.349.447.447 0 0 1 .34-.145z"/>
    </symbol>
    <symbol id="icon-close" viewBox="0 0 32 32">
      <path stroke-width="1.333" d="M23.466 7.9c.219 0 .355.065.462.172s.172.242.172.461c0 .219-.065.355-.172.462L16.923 16l7.005 7.004c.107.107.172.243.172.462s-.065.355-.172.462-.243.172-.462.172c-.219 0-.355-.065-.462-.172L16 16.923l-7.005 7.005c-.107.107-.243.172-.462.172s-.354-.065-.461-.172c-.107-.107-.172-.243-.172-.462s.065-.355.172-.462L15.076 16 8.072 8.995c-.107-.107-.172-.243-.172-.462s.065-.354.172-.461.242-.172.461-.172c.219 0 .355.065.462.172L16 15.076l7.004-7.004c.107-.107.243-.172.462-.172z"/>
    </symbol>
    <symbol id="icon-communication" viewBox="0 0 32 32">
      <path d="M1.15 21.271v-.569c0-1.243.618-2.059 1.853-2.45s2.329-.586 3.283-.586c.954 0 2.048.195 3.283.584s1.853 1.207 1.853 2.451v.569H1.151zm5.134-5.39c-.725 0-1.345-.259-1.861-.776s-.773-1.14-.773-1.866.258-1.348.775-1.863c.516-.515 1.137-.773 1.862-.773s1.345.259 1.861.776.773 1.139.773 1.864-.258 1.346-.775 1.864a2.537 2.537 0 0 1-1.862.776zm6.96 1.999c-.255 0-.466-.08-.632-.24s-.249-.365-.249-.616c0-.125.083-.342.249-.65.172-.244.309-.5.409-.767s.15-.545.15-.834c0-.289-.05-.575-.15-.858s-.237-.532-.411-.749c-.072-.097-.131-.198-.177-.303s-.069-.216-.069-.333c0-.254.083-.464.25-.629s.377-.248.631-.248c.112 0 .228.018.346.054s.211.098.278.187c.388.405.673.856.853 1.353s.271 1.006.271 1.526c0 .516-.097 1.035-.291 1.556s-.48.968-.856 1.34c-.089.089-.182.146-.278.171s-.204.038-.322.038zm2.539 2.535c-.26 0-.471-.084-.633-.251s-.243-.379-.243-.635c0-.118.022-.228.065-.33s.101-.201.173-.296c.546-.639.951-1.307 1.215-2.005s.395-1.405.395-2.125-.132-1.434-.395-2.144a6.393 6.393 0 0 0-1.216-1.998c-.071-.095-.129-.192-.172-.291s-.065-.211-.065-.335c0-.258.083-.469.25-.633s.377-.246.632-.246c.13 0 .252.03.363.091s.214.141.308.242c.695.8 1.215 1.649 1.558 2.547s.516 1.819.516 2.764c0 .945-.172 1.866-.516 2.764s-.863 1.747-1.558 2.547c-.087.111-.187.194-.299.25s-.238.083-.378.083zm4.796.856v-.569c0-1.244.617-2.061 1.853-2.451s2.329-.584 3.283-.584c.954 0 2.048.195 3.283.586s1.853 1.207 1.853 2.45v.569H20.58zm5.134-5.39c-.725 0-1.345-.259-1.861-.776s-.773-1.14-.773-1.866.258-1.348.775-1.863c.516-.515 1.137-.773 1.862-.773s1.345.259 1.861.776.773 1.139.773 1.864-.258 1.346-.775 1.864a2.537 2.537 0 0 1-1.862.776z"/>
    </symbol>
    <symbol id="icon-Company-Logo" viewBox="0 0 78 32">
<path fill="#f6cc90" style="fill: var(--color1, #f6cc90)" d="M7.782 20.73c0-0.006 1.14-0.974 3.829-0.974 2.612 0 3.829 0.968 3.829 0.974h-7.658z"></path>
<path fill="#f0c17f" style="fill: var(--color2, #f0c17f)" d="M11.611 19.756c-0.167 0-0.328 0.004-0.483 0.011 2.288 0.106 3.359 0.958 3.359 0.963h0.953c0-0.006-1.217-0.974-3.829-0.974z"></path>
<path fill="#c5e866" style="fill: var(--color3, #c5e866)" d="M13.349 13.016c-0.312 0.904-1.151 1.059-1.151 1.059s-0.556-0.666-0.253-1.546c0.32-0.927 1.159-1.083 1.159-1.083s0.56 0.654 0.245 1.57z"></path>
<path fill="#b2d94b" style="fill: var(--color4, #b2d94b)" d="M13.105 11.447c0 0-0.222 0.041-0.481 0.207 0.142 0.263 0.319 0.755 0.109 1.363-0.151 0.437-0.425 0.699-0.668 0.853 0.071 0.132 0.133 0.206 0.133 0.206s0.839-0.155 1.151-1.059c0.316-0.915-0.245-1.57-0.245-1.57z"></path>
<path fill="#9cc042" style="fill: var(--color5, #9cc042)" d="M12.512 17.265c-0.512 0.073-0.889-0.032-0.889-0.032s-0.326-1.308 0.692-2.329c1.073-1.076 2.349-0.722 2.349-0.722s0.28 1.067-0.462 2.059z"></path>
<path fill="#85aa18" style="fill: var(--color6, #85aa18)" d="M14.665 14.182c0 0-0.342-0.095-0.821-0.037 0.129 0.016 0.205 0.037 0.205 0.037s0.28 1.067-0.462 2.059l-1.691 1.024c-0.019 0.003-0.037 0.005-0.056 0.007 0.16 0.020 0.396 0.032 0.672-0.007l1.691-1.024c0.742-0.992 0.462-2.059 0.462-2.059z"></path>
<path fill="#c5e866" style="fill: var(--color3, #c5e866)" d="M10.403 16.579c0.908 0.716 0.753 1.742 0.753 1.742s-0.981 0.375-1.866-0.322c-0.932-0.735-0.777-1.761-0.777-1.761s0.969-0.385 1.889 0.341z"></path>
<path fill="#9cc042" style="fill: var(--color5, #9cc042)" d="M9.361 15.102c0.915 1.165 2.224 0.965 2.224 0.965s0.478-1.26-0.413-2.395c-0.938-1.196-2.247-0.995-2.247-0.995s-0.489 1.245 0.437 2.425z"></path>
<path fill="#c5e866" style="fill: var(--color3, #c5e866)" d="M13.967 17.793c-0.785 0.543-1.553 0.169-1.553 0.169s-0.055-0.867 0.71-1.396c0.805-0.557 1.573-0.183 1.573-0.183s0.065 0.86-0.73 1.41z"></path>
<path fill="#b2d94b" style="fill: var(--color4, #b2d94b)" d="M14.697 16.383c0 0-0.4-0.195-0.926-0.094 0.192 0.036 0.31 0.094 0.31 0.094s0.065 0.86-0.73 1.41c-0.213 0.147-0.424 0.227-0.62 0.265 0.296 0.056 0.763 0.062 1.236-0.265 0.795-0.55 0.73-1.41 0.73-1.41z"></path>
<path fill="#060606" style="fill: var(--color7, #060606)" d="M15.463 20.572c-0.277-0.195-0.593-0.341-0.908-0.462-0.569-0.219-1.515-0.478-2.826-0.493 0.021-0.181 0.072-0.442 0.19-0.732 0.117-0.288 0.276-0.548 0.475-0.779 0.093 0.038 0.334 0.123 0.648 0.123 0.291 0 0.645-0.072 1.004-0.32 0.851-0.589 0.793-1.497 0.79-1.536-0.004-0.050-0.034-0.094-0.078-0.115-0.013-0.006-0.134-0.064-0.325-0.102 0.156-0.245 0.271-0.511 0.341-0.793 0.044-0.175-0.228-0.243-0.272-0.068-0.074 0.298-0.204 0.575-0.384 0.826-0.303-0.007-0.684 0.062-1.074 0.331-0.291 0.201-0.472 0.446-0.586 0.68-0.246 0.031-0.457 0.020-0.6 0.002 0.285-0.384 1.026-1.314 1.862-1.8 0.156-0.091 0.015-0.333-0.141-0.242-0.813 0.473-1.52 1.315-1.861 1.762-0.020-0.436 0.056-1.205 0.698-1.849 0.418-0.42 0.916-0.663 1.48-0.723 0.295-0.031 0.532-0.002 0.651 0.020 0.012 0.073 0.028 0.191 0.030 0.339 0.003 0.179 0.283 0.177 0.28-0.005-0.005-0.291-0.054-0.48-0.056-0.488-0.013-0.048-0.050-0.086-0.098-0.099-0.014-0.004-0.35-0.095-0.824-0.047-0.436 0.044-1.078 0.22-1.662 0.805-0.049 0.049-0.094 0.098-0.137 0.148 0.079-0.242 0.165-0.504 0.252-0.768 0.254-0.077 0.88-0.343 1.15-1.123 0.338-0.98-0.246-1.677-0.271-1.707-0.033-0.038-0.083-0.056-0.132-0.047-0.038 0.007-0.924 0.182-1.266 1.175-0.284 0.824 0.121 1.469 0.245 1.639-0.082 0.245-0.161 0.489-0.235 0.715-0.057-0.379-0.205-0.824-0.54-1.252-0.51-0.65-1.127-0.901-1.555-0.996-0.465-0.104-0.809-0.053-0.824-0.051-0.049 0.008-0.091 0.041-0.109 0.087-0.004 0.010-0.097 0.249-0.128 0.616-0.015 0.18 0.264 0.204 0.279 0.024 0.018-0.207 0.057-0.368 0.084-0.458 0.12-0.007 0.359-0.009 0.648 0.057 0.553 0.126 1.019 0.427 1.385 0.893 0.347 0.442 0.519 0.954 0.511 1.524-0.003 0.185-0.025 0.347-0.049 0.471-0.554-1.032-1.339-1.825-1.373-1.86-0.128-0.128-0.326 0.070-0.198 0.198 0.008 0.008 0.817 0.826 1.353 1.847-0.125-0.003-0.288-0.017-0.47-0.057-0.548-0.121-1.007-0.413-1.363-0.867-0.248-0.316-0.412-0.667-0.488-1.042-0.036-0.177-0.31-0.122-0.275 0.055 0.085 0.419 0.267 0.809 0.542 1.16 0.498 0.635 1.11 0.878 1.535 0.97 0.212 0.046 0.431 0.068 0.647 0.061v2.359c-0.042-0.091-0.088-0.177-0.136-0.259 0.019-0.166 0.088-1.144-0.808-1.85-0.972-0.766-1.985-0.378-2.028-0.361-0.046 0.018-0.079 0.060-0.087 0.109-0.007 0.045-0.156 1.116 0.829 1.892 0.457 0.36 0.935 0.455 1.31 0.455 0.243 0 0.442-0.040 0.564-0.072 0.195 0.341 0.31 0.717 0.345 1.125-0.725 0.012-1.401 0.096-2.013 0.248-0.175 0.044-0.107 0.316 0.068 0.272 0.593-0.148 1.25-0.229 1.956-0.24v0.322c0 0.181 0.28 0.181 0.28 0v-0.323c1.652 0.016 2.708 0.421 3.233 0.693h-6.689c0.136-0.072 0.31-0.154 0.525-0.236 0.169-0.064 0.069-0.326-0.1-0.262-0.349 0.133-0.597 0.267-0.744 0.357-0.298 0.182-0.298 0.226-0.298 0.281 0 0.077 0.063 0.14 0.14 0.14h7.658c0.213-0 0.129-0.224 0.023-0.298zM13.203 16.681c0.591-0.409 1.152-0.274 1.354-0.203-0.008 0.216-0.086 0.796-0.671 1.2-0.53 0.366-1.046 0.279-1.28 0.207 0.276-0.258 0.612-0.473 1.006-0.642 0.166-0.071 0.056-0.329-0.11-0.258-0.356 0.152-0.649 0.334-0.891 0.528 0.073-0.26 0.235-0.585 0.592-0.832zM12.146 17.431c0.063 0 0.13-0.002 0.2-0.007-0.046 0.16-0.064 0.301-0.070 0.4-0.265 0.282-0.443 0.572-0.562 0.83v-1.257c0.098 0.017 0.248 0.036 0.432 0.036zM12.078 12.575c0.235-0.68 0.766-0.906 0.971-0.969 0.122 0.179 0.4 0.692 0.168 1.365-0.174 0.504-0.522 0.752-0.769 0.87 0.182-0.538 0.362-1.047 0.492-1.367 0.068-0.167-0.191-0.273-0.259-0.106-0.136 0.334-0.321 0.859-0.507 1.409-0.127-0.244-0.275-0.68-0.095-1.202zM9.377 17.889c-0.357-0.282-0.588-0.64-0.685-1.065-0.048-0.209-0.050-0.383-0.046-0.481 0.239-0.067 0.971-0.205 1.671 0.346 0.347 0.274 0.571 0.626 0.665 1.048 0.014 0.061 0.023 0.12 0.030 0.174-0.093-0.112-0.188-0.212-0.28-0.297-0.483-0.453-0.963-0.643-0.983-0.651-0.168-0.066-0.27 0.196-0.102 0.261 0.004 0.002 0.449 0.178 0.893 0.594 0.142 0.133 0.267 0.274 0.375 0.423-0.31 0.063-0.949 0.112-1.538-0.352z"></path>
<path fill="#000" style="fill: var(--color8, #000)" d="M18.544 18.648v-5.466h4.104v5.466h-0.681v-4.862h-2.733v4.862h-0.689zM27.543 16.589c0 0.342-0.046 0.646-0.138 0.911-0.087 0.26-0.214 0.482-0.383 0.666-0.163 0.184-0.365 0.324-0.605 0.421-0.235 0.092-0.498 0.138-0.789 0.138-0.27 0-0.521-0.046-0.75-0.138-0.23-0.097-0.429-0.237-0.597-0.421s-0.301-0.406-0.398-0.666c-0.092-0.265-0.138-0.569-0.138-0.911 0-0.454 0.077-0.837 0.23-1.148 0.153-0.316 0.373-0.556 0.658-0.72 0.286-0.168 0.625-0.253 1.018-0.253 0.373 0 0.699 0.084 0.98 0.253 0.286 0.163 0.508 0.403 0.666 0.72 0.163 0.311 0.245 0.694 0.245 1.148zM24.442 16.589c0 0.322 0.041 0.602 0.122 0.842 0.087 0.235 0.219 0.416 0.398 0.544s0.406 0.191 0.681 0.191 0.503-0.064 0.681-0.191c0.179-0.128 0.309-0.309 0.39-0.544 0.087-0.24 0.13-0.521 0.13-0.842 0-0.327-0.043-0.605-0.13-0.835s-0.219-0.406-0.398-0.528c-0.174-0.128-0.401-0.191-0.681-0.191-0.419 0-0.722 0.138-0.911 0.413s-0.283 0.656-0.283 1.141zM31.581 14.545v3.537h0.597v1.991h-0.651v-1.424h-2.856v1.424h-0.643v-1.991h0.329c0.235-0.327 0.429-0.681 0.582-1.064 0.158-0.388 0.276-0.791 0.352-1.21 0.082-0.424 0.125-0.845 0.13-1.263h2.159zM30.019 15.073c-0.020 0.347-0.074 0.707-0.161 1.080-0.087 0.367-0.199 0.72-0.337 1.057-0.133 0.337-0.288 0.628-0.467 0.873h1.876v-3.009h-0.911zM36.474 16.589c0 0.342-0.046 0.646-0.138 0.911-0.087 0.26-0.214 0.482-0.383 0.666-0.163 0.184-0.365 0.324-0.605 0.421-0.235 0.092-0.498 0.138-0.789 0.138-0.27 0-0.521-0.046-0.75-0.138-0.23-0.097-0.429-0.237-0.597-0.421s-0.301-0.406-0.398-0.666c-0.092-0.265-0.138-0.569-0.138-0.911 0-0.454 0.077-0.837 0.23-1.148 0.153-0.316 0.373-0.556 0.658-0.72 0.286-0.168 0.625-0.253 1.018-0.253 0.373 0 0.699 0.084 0.98 0.253 0.286 0.163 0.508 0.403 0.666 0.72 0.163 0.311 0.245 0.694 0.245 1.148zM33.373 16.589c0 0.322 0.041 0.602 0.123 0.842 0.087 0.235 0.219 0.416 0.398 0.544s0.406 0.191 0.681 0.191 0.503-0.064 0.681-0.191c0.179-0.128 0.309-0.309 0.391-0.544 0.087-0.24 0.13-0.521 0.13-0.842 0-0.327-0.043-0.605-0.13-0.835s-0.219-0.406-0.398-0.528c-0.174-0.128-0.401-0.191-0.681-0.191-0.419 0-0.722 0.138-0.911 0.413s-0.283 0.656-0.283 1.141zM39.417 14.468c0.505 0 0.911 0.176 1.217 0.528 0.311 0.352 0.467 0.883 0.467 1.592 0 0.464-0.071 0.857-0.214 1.179-0.138 0.316-0.334 0.556-0.589 0.72-0.25 0.158-0.546 0.237-0.888 0.237-0.209 0-0.396-0.028-0.559-0.084s-0.304-0.128-0.421-0.214c-0.112-0.092-0.209-0.191-0.291-0.299h-0.046c0.010 0.087 0.020 0.197 0.031 0.329s0.015 0.248 0.015 0.345v1.684h-0.674v-5.941h0.551l0.092 0.559h0.031c0.082-0.117 0.179-0.225 0.291-0.322 0.117-0.097 0.255-0.174 0.413-0.23 0.163-0.056 0.355-0.084 0.574-0.084zM39.295 15.035c-0.276 0-0.498 0.054-0.666 0.161-0.168 0.102-0.291 0.258-0.367 0.467s-0.117 0.475-0.123 0.796v0.13c0 0.337 0.036 0.623 0.107 0.857s0.191 0.413 0.36 0.536c0.174 0.122 0.408 0.184 0.704 0.184 0.25 0 0.454-0.069 0.612-0.207 0.163-0.138 0.283-0.324 0.36-0.559 0.082-0.24 0.123-0.513 0.123-0.819 0-0.47-0.092-0.845-0.276-1.125-0.179-0.281-0.457-0.421-0.835-0.421zM45.667 16.589c0 0.342-0.046 0.646-0.138 0.911-0.087 0.26-0.215 0.482-0.383 0.666-0.163 0.184-0.365 0.324-0.605 0.421-0.235 0.092-0.498 0.138-0.788 0.138-0.27 0-0.521-0.046-0.751-0.138-0.23-0.097-0.429-0.237-0.597-0.421s-0.301-0.406-0.398-0.666c-0.092-0.265-0.138-0.569-0.138-0.911 0-0.454 0.077-0.837 0.23-1.148 0.153-0.316 0.373-0.556 0.658-0.72 0.286-0.168 0.625-0.253 1.018-0.253 0.372 0 0.699 0.084 0.98 0.253 0.286 0.163 0.508 0.403 0.666 0.72 0.163 0.311 0.245 0.694 0.245 1.148zM42.566 16.589c0 0.322 0.041 0.602 0.123 0.842 0.087 0.235 0.219 0.416 0.398 0.544s0.406 0.191 0.681 0.191 0.503-0.064 0.681-0.191c0.178-0.128 0.308-0.309 0.39-0.544 0.087-0.24 0.13-0.521 0.13-0.842 0-0.327-0.044-0.605-0.13-0.835s-0.22-0.406-0.398-0.528c-0.174-0.128-0.401-0.191-0.681-0.191-0.419 0-0.722 0.138-0.911 0.413s-0.283 0.656-0.283 1.141zM51.431 14.545l-1.692 1.991 1.837 2.113h-0.765l-1.776-2.082v2.082h-0.628v-2.082l-1.776 2.082h-0.766l1.838-2.113-1.692-1.991h0.735l1.661 1.991v-1.991h0.628v1.991l1.669-1.991h0.727zM52.847 14.545v1.707h2.228v-1.707h0.674v4.104h-0.674v-1.83h-2.228v1.83h-0.674v-4.104h0.674zM57.607 17.048c0 0.046-0.003 0.112-0.008 0.199 0 0.082-0.003 0.171-0.008 0.268-0.005 0.092-0.010 0.181-0.015 0.268-0.005 0.082-0.010 0.148-0.015 0.199l2.197-3.438h0.827v4.104h-0.628v-2.419c0-0.082 0-0.189 0-0.322 0.005-0.133 0.010-0.263 0.015-0.39 0.005-0.133 0.010-0.232 0.015-0.299l-2.182 3.43h-0.835v-4.104h0.635v2.503zM64.242 14.545h0.735l-1.754 1.975 1.899 2.128h-0.781l-1.853-2.082v2.082h-0.674v-4.104h0.674v1.991l1.753-1.991zM66.426 17.048c0 0.046-0.003 0.112-0.008 0.199 0 0.082-0.003 0.171-0.008 0.268-0.005 0.092-0.010 0.181-0.015 0.268-0.005 0.082-0.010 0.148-0.015 0.199l2.197-3.438h0.827v4.104h-0.628v-2.419c0-0.082 0-0.189 0-0.322 0.005-0.133 0.010-0.263 0.015-0.39 0.005-0.133 0.010-0.232 0.015-0.299l-2.182 3.43h-0.835v-4.104h0.635v2.503z"></path>
</symbol>
<symbol id="icon-Company-Logo-1" viewBox="0 0 139 32">
<path fill="#f6cc90" style="fill: var(--color1, #f6cc90)" d="M5.548 25.854c0-0.013 2.375-2.029 7.977-2.029 5.441 0 7.977 2.016 7.977 2.029h-15.954z"></path>
<path fill="#f0c17f" style="fill: var(--color2, #f0c17f)" d="M13.525 23.824c-0.347 0-0.682 0.008-1.005 0.022 4.767 0.22 6.998 1.995 6.998 2.007h1.985c0-0.013-2.536-2.029-7.977-2.029z"></path>
<path fill="#c5e866" style="fill: var(--color3, #c5e866)" d="M17.148 9.784c-0.649 1.883-2.398 2.207-2.398 2.207s-1.159-1.388-0.527-3.221c0.666-1.932 2.415-2.256 2.415-2.256s1.167 1.363 0.51 3.27z"></path>
<path fill="#b2d94b" style="fill: var(--color4, #b2d94b)" d="M16.638 6.514c0 0-0.462 0.086-1.002 0.431 0.297 0.547 0.664 1.573 0.228 2.839-0.314 0.911-0.885 1.457-1.392 1.778 0.149 0.274 0.278 0.429 0.278 0.429s1.749-0.324 2.398-2.207c0.657-1.907-0.51-3.27-0.51-3.27z"></path>
<path fill="#9cc042" style="fill: var(--color5, #9cc042)" d="M15.404 18.635c-1.066 0.152-1.851-0.066-1.851-0.066s-0.679-2.724 1.443-4.852c2.235-2.242 4.893-1.504 4.893-1.504s0.583 2.223-0.962 4.29z"></path>
<path fill="#85aa18" style="fill: var(--color6, #85aa18)" d="M19.888 12.213c0 0-0.713-0.198-1.711-0.077 0.269 0.034 0.427 0.077 0.427 0.077s0.583 2.223-0.962 4.29l-3.523 2.133c-0.039 0.006-0.078 0.010-0.116 0.015 0.332 0.041 0.825 0.067 1.4-0.015l3.523-2.133c1.546-2.066 0.962-4.29 0.962-4.29z"></path>
<path fill="#c5e866" style="fill: var(--color3, #c5e866)" d="M11.010 17.207c1.893 1.492 1.57 3.63 1.57 3.63s-2.043 0.782-3.887-0.671c-1.942-1.53-1.619-3.668-1.619-3.668s2.019-0.801 3.936 0.71z"></path>
<path fill="#9cc042" style="fill: var(--color5, #9cc042)" d="M8.84 14.13c1.905 2.428 4.633 2.010 4.633 2.010s0.995-2.625-0.861-4.989c-1.955-2.491-4.682-2.073-4.682-2.073s-1.020 2.593 0.91 5.052z"></path>
<path fill="#c5e866" style="fill: var(--color3, #c5e866)" d="M18.434 19.736c-1.635 1.131-3.235 0.352-3.235 0.352s-0.114-1.807 1.479-2.908c1.677-1.16 3.278-0.381 3.278-0.381s0.135 1.792-1.521 2.937z"></path>
<path fill="#b2d94b" style="fill: var(--color4, #b2d94b)" d="M19.955 16.799c0 0-0.834-0.406-1.929-0.195 0.399 0.076 0.645 0.195 0.645 0.195s0.135 1.792-1.521 2.937c-0.443 0.306-0.884 0.472-1.291 0.552 0.617 0.117 1.59 0.129 2.575-0.552 1.656-1.145 1.521-2.937 1.521-2.937z"></path>
<path fill="#fff" style="fill: var(--color7, #fff)" d="M21.551 25.524c-0.577-0.407-1.235-0.71-1.892-0.962-1.185-0.456-3.157-0.997-5.887-1.028 0.044-0.378 0.149-0.92 0.395-1.524 0.244-0.6 0.575-1.141 0.99-1.622 0.195 0.080 0.696 0.256 1.351 0.256 0.606 0 1.345-0.151 2.092-0.668 1.773-1.226 1.653-3.119 1.646-3.199-0.008-0.103-0.070-0.195-0.163-0.24-0.027-0.013-0.279-0.132-0.678-0.213 0.325-0.51 0.564-1.065 0.711-1.653 0.091-0.365-0.475-0.507-0.566-0.142-0.155 0.62-0.424 1.198-0.8 1.72-0.632-0.015-1.425 0.128-2.238 0.69-0.606 0.419-0.984 0.929-1.22 1.416-0.512 0.065-0.952 0.041-1.251 0.005 0.593-0.8 2.139-2.738 3.878-3.751 0.325-0.189 0.032-0.694-0.294-0.505-1.693 0.985-3.167 2.739-3.877 3.67-0.041-0.908 0.117-2.511 1.454-3.852 0.872-0.874 1.909-1.381 3.083-1.506 0.615-0.065 1.109-0.003 1.355 0.041 0.026 0.152 0.058 0.398 0.063 0.707 0.007 0.373 0.59 0.368 0.584-0.010-0.011-0.606-0.112-1-0.117-1.016-0.026-0.101-0.104-0.179-0.204-0.207-0.029-0.008-0.729-0.198-1.716-0.098-0.909 0.092-2.247 0.458-3.462 1.677-0.101 0.102-0.196 0.205-0.286 0.309 0.164-0.505 0.343-1.050 0.526-1.599 0.529-0.161 1.834-0.714 2.395-2.34 0.704-2.042-0.512-3.494-0.564-3.555-0.068-0.079-0.172-0.116-0.275-0.097-0.078 0.014-1.924 0.379-2.638 2.447-0.592 1.717 0.252 3.060 0.51 3.414-0.17 0.511-0.336 1.018-0.49 1.49-0.118-0.79-0.426-1.716-1.126-2.607-1.063-1.354-2.349-1.876-3.24-2.075-0.969-0.216-1.686-0.111-1.716-0.106-0.103 0.016-0.189 0.085-0.227 0.182-0.008 0.021-0.202 0.52-0.268 1.284-0.032 0.375 0.549 0.425 0.582 0.050 0.037-0.431 0.12-0.767 0.175-0.955 0.25-0.015 0.748-0.018 1.351 0.12 1.151 0.263 2.122 0.889 2.885 1.861 0.722 0.921 1.081 1.988 1.065 3.174-0.005 0.386-0.052 0.723-0.103 0.982-1.155-2.15-2.789-3.802-2.861-3.874-0.266-0.267-0.679 0.145-0.413 0.412 0.017 0.017 1.702 1.721 2.819 3.849-0.261-0.006-0.599-0.035-0.979-0.119-1.143-0.253-2.098-0.86-2.84-1.806-0.517-0.658-0.858-1.389-1.017-2.171-0.074-0.369-0.647-0.254-0.572 0.116 0.176 0.872 0.556 1.685 1.13 2.416 1.038 1.323 2.312 1.829 3.199 2.021 0.442 0.096 0.897 0.141 1.349 0.126v4.914c-0.088-0.19-0.183-0.37-0.283-0.54 0.040-0.345 0.184-2.383-1.684-3.855-2.026-1.597-4.136-0.787-4.224-0.752-0.096 0.038-0.165 0.125-0.181 0.228-0.014 0.094-0.325 2.324 1.727 3.941 0.953 0.751 1.948 0.947 2.728 0.947 0.506 0 0.921-0.082 1.175-0.149 0.406 0.71 0.646 1.493 0.719 2.344-1.51 0.026-2.919 0.199-4.193 0.517-0.365 0.091-0.224 0.657 0.142 0.566 1.235-0.309 2.604-0.476 4.075-0.5v0.671c0 0.376 0.584 0.376 0.584 0v-0.673c3.442 0.034 5.642 0.877 6.736 1.444h-13.935c0.284-0.151 0.647-0.322 1.095-0.492 0.352-0.134 0.144-0.68-0.207-0.546-0.727 0.276-1.245 0.557-1.551 0.744-0.622 0.379-0.622 0.47-0.622 0.586 0 0.161 0.131 0.292 0.292 0.292h15.954c0.444 0 0.269-0.466 0.049-0.621zM16.843 17.42c1.231-0.851 2.401-0.571 2.821-0.423-0.016 0.451-0.179 1.658-1.397 2.499-1.104 0.763-2.178 0.58-2.668 0.431 0.575-0.538 1.275-0.985 2.096-1.337 0.346-0.148 0.116-0.685-0.23-0.536-0.741 0.317-1.352 0.695-1.856 1.1 0.152-0.542 0.489-1.219 1.233-1.733zM14.642 18.981c0.131 0 0.27-0.005 0.416-0.015-0.096 0.333-0.133 0.627-0.146 0.833-0.553 0.587-0.923 1.192-1.17 1.728v-2.62c0.205 0.035 0.517 0.074 0.901 0.074zM14.499 8.865c0.489-1.418 1.596-1.887 2.022-2.019 0.253 0.373 0.834 1.442 0.351 2.844-0.362 1.049-1.088 1.567-1.602 1.812 0.379-1.12 0.753-2.181 1.025-2.847 0.142-0.349-0.398-0.569-0.54-0.22-0.283 0.695-0.67 1.79-1.057 2.936-0.265-0.508-0.574-1.417-0.199-2.505zM8.873 19.936c-0.744-0.587-1.225-1.333-1.428-2.219-0.1-0.434-0.105-0.799-0.096-1.002 0.497-0.139 2.023-0.428 3.48 0.721 0.724 0.57 1.19 1.305 1.385 2.184 0.028 0.128 0.049 0.249 0.063 0.363-0.194-0.234-0.392-0.441-0.583-0.619-1.007-0.945-2.006-1.34-2.048-1.357-0.351-0.137-0.563 0.407-0.212 0.544 0.009 0.004 0.935 0.37 1.861 1.238 0.296 0.277 0.556 0.571 0.782 0.881-0.647 0.132-1.976 0.233-3.203-0.734z"></path>
<path fill="#1e1e1e" style="fill: var(--color8, #1e1e1e)" d="M21.187 24.821c-0.549-0.392-1.174-0.684-1.799-0.927-1.126-0.439-3.001-0.96-5.597-0.99 0.042-0.364 0.142-0.887 0.376-1.469 0.232-0.578 0.547-1.1 0.941-1.563 0.185 0.077 0.661 0.247 1.284 0.247 0.577 0 1.278-0.145 1.989-0.643 1.686-1.181 1.571-3.006 1.565-3.083-0.007-0.1-0.067-0.188-0.155-0.232-0.025-0.012-0.265-0.128-0.644-0.206 0.309-0.492 0.536-1.026 0.676-1.592 0.087-0.352-0.451-0.488-0.538-0.136-0.147 0.598-0.403 1.155-0.76 1.658-0.601-0.014-1.355 0.124-2.128 0.665-0.576 0.404-0.936 0.895-1.16 1.364-0.487 0.063-0.905 0.040-1.189 0.004 0.564-0.771 2.033-2.639 3.687-3.614 0.309-0.182 0.030-0.669-0.279-0.486-1.61 0.949-3.011 2.639-3.686 3.536-0.039-0.875 0.111-2.419 1.382-3.712 0.829-0.842 1.815-1.331 2.931-1.451 0.584-0.063 1.055-0.003 1.289 0.040 0.025 0.147 0.055 0.384 0.060 0.681 0.006 0.359 0.561 0.355 0.555-0.010-0.010-0.584-0.107-0.963-0.111-0.979-0.025-0.097-0.099-0.173-0.194-0.2-0.028-0.008-0.693-0.191-1.632-0.094-0.864 0.089-2.136 0.441-3.291 1.616-0.096 0.098-0.187 0.197-0.272 0.297 0.156-0.486 0.326-1.012 0.5-1.541 0.503-0.155 1.744-0.688 2.277-2.255 0.669-1.967-0.487-3.367-0.536-3.426-0.064-0.076-0.164-0.112-0.261-0.094-0.074 0.014-1.83 0.365-2.508 2.358-0.563 1.655 0.239 2.948 0.484 3.289-0.162 0.493-0.32 0.981-0.466 1.436-0.112-0.761-0.405-1.653-1.070-2.513-1.011-1.305-2.233-1.808-3.080-2-0.921-0.209-1.603-0.107-1.631-0.102-0.098 0.015-0.18 0.082-0.216 0.175-0.008 0.020-0.192 0.501-0.254 1.237-0.031 0.361 0.522 0.41 0.553 0.048 0.035-0.415 0.114-0.739 0.166-0.92 0.238-0.014 0.711-0.017 1.284 0.116 1.095 0.254 2.017 0.857 2.742 1.793 0.687 0.887 1.027 1.916 1.012 3.059-0.005 0.372-0.049 0.697-0.098 0.946-1.098-2.072-2.652-3.664-2.72-3.733-0.253-0.257-0.646 0.14-0.393 0.397 0.016 0.017 1.619 1.659 2.68 3.708-0.248-0.006-0.57-0.034-0.931-0.114-1.086-0.244-1.995-0.829-2.7-1.74-0.491-0.634-0.816-1.338-0.966-2.092-0.071-0.355-0.615-0.244-0.544 0.111 0.167 0.841 0.529 1.624 1.074 2.328 0.987 1.274 2.198 1.762 3.041 1.947 0.42 0.092 0.853 0.136 1.282 0.122v4.735c-0.084-0.183-0.174-0.356-0.269-0.52 0.038-0.333 0.175-2.296-1.601-3.714-1.926-1.538-3.932-0.758-4.016-0.724-0.092 0.037-0.157 0.12-0.172 0.219-0.013 0.091-0.309 2.24 1.642 3.798 0.906 0.724 1.852 0.912 2.594 0.912 0.481 0 0.876-0.079 1.117-0.144 0.386 0.684 0.615 1.439 0.683 2.259-1.436 0.025-2.776 0.192-3.987 0.498-0.347 0.088-0.213 0.634 0.135 0.546 1.174-0.297 2.476-0.459 3.874-0.482v0.646c0 0.363 0.555 0.363 0.555 0v-0.648c3.272 0.033 5.364 0.845 6.404 1.391h-13.248c0.27-0.145 0.615-0.31 1.041-0.474 0.334-0.129 0.137-0.655-0.197-0.526-0.691 0.266-1.183 0.537-1.474 0.717-0.591 0.365-0.591 0.453-0.591 0.565 0 0.155 0.124 0.281 0.277 0.281h15.168c0.422 0 0.256-0.449 0.046-0.599zM16.711 17.012c1.171-0.82 2.282-0.55 2.682-0.408-0.016 0.434-0.171 1.597-1.328 2.408-1.050 0.736-2.071 0.559-2.536 0.415 0.547-0.519 1.212-0.95 1.993-1.289 0.329-0.143 0.11-0.66-0.219-0.517-0.704 0.306-1.285 0.67-1.764 1.060 0.144-0.522 0.465-1.175 1.172-1.67zM14.618 18.516c0.124 0 0.257-0.005 0.396-0.015-0.091 0.321-0.127 0.604-0.139 0.802-0.525 0.565-0.878 1.148-1.113 1.665v-2.524c0.195 0.034 0.491 0.071 0.857 0.071zM14.482 8.769c0.465-1.366 1.517-1.819 1.923-1.946 0.241 0.36 0.793 1.389 0.334 2.74-0.344 1.011-1.034 1.51-1.523 1.746 0.36-1.079 0.716-2.102 0.975-2.744 0.135-0.336-0.379-0.548-0.514-0.212-0.27 0.67-0.637 1.725-1.005 2.829-0.252-0.489-0.545-1.366-0.189-2.414zM9.134 19.437c-0.708-0.565-1.164-1.285-1.358-2.138-0.095-0.419-0.1-0.77-0.092-0.966 0.473-0.134 1.923-0.412 3.309 0.695 0.688 0.549 1.131 1.258 1.317 2.104 0.027 0.123 0.046 0.24 0.060 0.35-0.185-0.226-0.373-0.425-0.554-0.597-0.957-0.91-1.907-1.291-1.947-1.307-0.334-0.132-0.535 0.392-0.201 0.524 0.009 0.003 0.889 0.357 1.769 1.193 0.281 0.267 0.529 0.551 0.743 0.849-0.615 0.127-1.879 0.225-3.046-0.707z"></path>
<path fill="#fff" style="fill: var(--color7, #fff)" d="M27.969 21.517v-11.388h8.549v11.388h-1.42v-10.128h-5.694v10.128h-1.435zM46.718 17.226c0 0.712-0.096 1.345-0.287 1.898-0.181 0.542-0.447 1.005-0.797 1.388-0.34 0.383-0.76 0.675-1.26 0.877-0.489 0.191-1.037 0.287-1.643 0.287-0.564 0-1.085-0.096-1.563-0.287-0.478-0.202-0.893-0.494-1.244-0.877s-0.627-0.845-0.829-1.388c-0.191-0.553-0.287-1.186-0.287-1.898 0-0.946 0.159-1.744 0.478-2.393 0.319-0.659 0.776-1.159 1.372-1.499 0.595-0.351 1.303-0.526 2.121-0.526 0.776 0 1.457 0.175 2.042 0.526 0.595 0.34 1.058 0.84 1.388 1.499 0.34 0.649 0.51 1.446 0.51 2.393zM40.258 17.226c0 0.67 0.085 1.255 0.255 1.755 0.181 0.489 0.457 0.867 0.829 1.132s0.845 0.399 1.42 0.399 1.047-0.133 1.42-0.399c0.372-0.266 0.643-0.643 0.813-1.132 0.181-0.5 0.271-1.085 0.271-1.755 0-0.681-0.090-1.26-0.271-1.739s-0.457-0.845-0.829-1.101c-0.362-0.266-0.835-0.399-1.42-0.399-0.872 0-1.505 0.287-1.898 0.861s-0.59 1.366-0.59 2.377zM55.131 12.968v7.369h1.244v4.147h-1.356v-2.967h-5.949v2.967h-1.34v-4.147h0.686c0.489-0.681 0.893-1.42 1.212-2.217 0.33-0.808 0.574-1.648 0.734-2.52 0.17-0.883 0.261-1.76 0.271-2.632h4.498zM51.877 14.068c-0.043 0.723-0.154 1.473-0.335 2.249-0.181 0.766-0.415 1.499-0.702 2.201-0.276 0.702-0.601 1.308-0.973 1.818h3.908v-6.268h-1.898zM65.324 17.226c0 0.712-0.096 1.345-0.287 1.898-0.181 0.542-0.447 1.005-0.797 1.388-0.34 0.383-0.76 0.675-1.26 0.877-0.489 0.191-1.037 0.287-1.643 0.287-0.564 0-1.085-0.096-1.563-0.287-0.478-0.202-0.893-0.494-1.244-0.877s-0.627-0.845-0.829-1.388c-0.191-0.553-0.287-1.186-0.287-1.898 0-0.946 0.16-1.744 0.478-2.393 0.319-0.659 0.776-1.159 1.372-1.499 0.595-0.351 1.303-0.526 2.121-0.526 0.776 0 1.457 0.175 2.042 0.526 0.595 0.34 1.058 0.84 1.388 1.499 0.34 0.649 0.51 1.446 0.51 2.393zM58.864 17.226c0 0.67 0.085 1.255 0.255 1.755 0.181 0.489 0.457 0.867 0.829 1.132s0.845 0.399 1.42 0.399 1.047-0.133 1.42-0.399c0.372-0.266 0.643-0.643 0.813-1.132 0.181-0.5 0.271-1.085 0.271-1.755 0-0.681-0.090-1.26-0.271-1.739s-0.457-0.845-0.829-1.101c-0.361-0.266-0.835-0.399-1.42-0.399-0.872 0-1.505 0.287-1.898 0.861s-0.59 1.366-0.59 2.377zM71.456 12.808c1.053 0 1.898 0.367 2.536 1.101 0.649 0.734 0.973 1.84 0.973 3.318 0 0.968-0.149 1.786-0.447 2.456-0.287 0.659-0.696 1.159-1.228 1.499-0.521 0.33-1.138 0.494-1.85 0.494-0.436 0-0.824-0.058-1.164-0.175s-0.633-0.266-0.877-0.447c-0.234-0.191-0.436-0.399-0.606-0.622h-0.096c0.021 0.181 0.043 0.409 0.064 0.686s0.032 0.516 0.032 0.718v3.509h-1.404v-12.377h1.148l0.191 1.164h0.064c0.17-0.245 0.372-0.468 0.606-0.67 0.245-0.202 0.532-0.362 0.861-0.479 0.34-0.117 0.739-0.175 1.196-0.175zM71.201 13.988c-0.574 0-1.037 0.112-1.388 0.335-0.351 0.213-0.606 0.537-0.766 0.973s-0.245 0.989-0.255 1.659v0.271c0 0.702 0.074 1.297 0.223 1.786s0.399 0.861 0.75 1.117c0.362 0.255 0.851 0.383 1.467 0.383 0.521 0 0.946-0.144 1.276-0.431 0.34-0.287 0.59-0.675 0.75-1.164 0.17-0.5 0.255-1.069 0.255-1.707 0-0.978-0.191-1.76-0.574-2.345-0.372-0.585-0.952-0.877-1.739-0.877zM84.475 17.226c0 0.712-0.096 1.345-0.287 1.898-0.181 0.542-0.447 1.005-0.797 1.388-0.34 0.383-0.76 0.675-1.26 0.877-0.489 0.191-1.037 0.287-1.643 0.287-0.564 0-1.085-0.096-1.563-0.287-0.478-0.202-0.893-0.494-1.244-0.877s-0.627-0.845-0.829-1.388c-0.191-0.553-0.287-1.186-0.287-1.898 0-0.946 0.159-1.744 0.478-2.393 0.319-0.659 0.776-1.159 1.372-1.499 0.595-0.351 1.303-0.526 2.121-0.526 0.776 0 1.457 0.175 2.042 0.526 0.595 0.34 1.058 0.84 1.388 1.499 0.34 0.649 0.51 1.446 0.51 2.393zM78.015 17.226c0 0.67 0.085 1.255 0.255 1.755 0.181 0.489 0.457 0.867 0.829 1.132s0.845 0.399 1.42 0.399c0.574 0 1.047-0.133 1.42-0.399s0.643-0.643 0.813-1.132c0.181-0.5 0.271-1.085 0.271-1.755 0-0.681-0.090-1.26-0.271-1.739s-0.457-0.845-0.829-1.101c-0.362-0.266-0.835-0.399-1.42-0.399-0.872 0-1.505 0.287-1.898 0.861s-0.59 1.366-0.59 2.377zM96.484 12.968l-3.524 4.147 3.828 4.402h-1.595l-3.7-4.338v4.338h-1.308v-4.338l-3.7 4.338h-1.595l3.828-4.402-3.525-4.147h1.531l3.461 4.147v-4.147h1.308v4.147l3.477-4.147h1.515zM99.436 12.968v3.557h4.642v-3.557h1.404v8.549h-1.404v-3.812h-4.642v3.812h-1.404v-8.549h1.404zM109.352 18.183c0 0.096-0.005 0.234-0.016 0.415 0 0.17-0.005 0.356-0.016 0.558-0.011 0.191-0.021 0.378-0.032 0.558-0.011 0.17-0.021 0.308-0.032 0.415l4.578-7.162h1.723v8.549h-1.308v-5.040c0-0.17 0-0.393 0-0.67 0.011-0.276 0.021-0.548 0.032-0.813 0.011-0.277 0.021-0.484 0.032-0.622l-4.546 7.146h-1.739v-8.549h1.324v5.216zM123.174 12.968h1.531l-3.652 4.115 3.956 4.434h-1.627l-3.86-4.338v4.338h-1.404v-8.549h1.404v4.147l3.652-4.147zM127.724 18.183c0 0.096-0.005 0.234-0.016 0.415 0 0.17-0.005 0.356-0.016 0.558-0.011 0.191-0.021 0.378-0.032 0.558-0.011 0.17-0.020 0.308-0.031 0.415l4.577-7.162h1.723v8.549h-1.308v-5.040c0-0.17 0-0.393 0-0.67 0.011-0.276 0.021-0.548 0.032-0.813 0.011-0.277 0.021-0.484 0.032-0.622l-4.546 7.146h-1.739v-8.549h1.324v5.216z"></path>
</symbol>
    <symbol id="icon-edit" viewBox="0 0 32 32">
      <path d="M6.064 25.928h1.475l15.327-15.294-1.459-1.467L6.064 24.469v1.459zm-1.128 2.271a1.102 1.102 0 0 1-1.135-1.135v-2.561c0-.304.062-.601.187-.891s.289-.537.493-.742L22.952 4.424c.183-.188.404-.335.661-.441s.525-.158.803-.158c.255 0 .51.053.765.158s.491.25.707.433l1.73 1.706c.205.216.355.453.449.711s.141.517.141.777-.053.524-.158.79-.25.494-.433.682L9.146 27.52c-.21.204-.458.369-.746.493s-.583.187-.887.187H4.936zM22.14 9.893l-.733-.725 1.459 1.467-.725-.741z"/>
    </symbol>
    <symbol id="icon-Facebook" viewBox="0 0 32 32">
      <path d="M29.333 16.405C29.333 8.996 23.364 2.99 16 2.99S2.667 8.996 2.667 16.405c0 6.696 4.876 12.245 11.25 13.252v-9.374h-3.385v-3.878h3.385V13.45c0-3.362 1.991-5.219 5.036-5.219 1.459 0 2.985.262 2.985.262v3.301h-1.681c-1.656 0-2.173 1.034-2.173 2.095v2.516h3.698l-.591 3.878h-3.107v9.374c6.374-1.006 11.25-6.556 11.25-13.252z"/>
    </symbol>
    <symbol id="icon-Favicon" viewBox="0 0 32 32">
      <path fill="#e8eeff" d="M0 0h32v32H0V0z" style="fill:var(--color9, #e8eeff)"/>
      <path fill="#f6cc90" d="M5 29c0-.019 3.276-3 11-3 7.503 0 11 2.981 11 3H5z" style="fill:var(--color1, #f6cc90)"/>
      <path fill="#f0c17f" d="M16.343 26c-.464 0-.912.012-1.343.033 6.368.325 9.349 2.949 9.349 2.967H27c0-.019-3.388-3-10.657-3z" style="fill:var(--color2, #f0c17f)"/>
      <path fill="#c5e866" d="M20.758 7.18C19.975 9.586 17.864 10 17.864 10s-1.399-1.773-.636-4.117C18.032 3.414 20.143 3 20.143 3s1.409 1.742.615 4.18z" style="fill:var(--color3, #c5e866)"/>
      <path fill="#b2d94b" d="M20.012 3s-.643.11-1.393.551c.412.699.924 2.01.317 3.628a4.378 4.378 0 0 1-1.935 2.272c.206.35.386.548.386.548s2.432-.414 3.335-2.82c.914-2.437-.709-4.18-.709-4.18z" style="fill:var(--color4, #b2d94b)"/>
      <path fill="#9cc042" d="M18.687 18.935c-1.466.184-2.545-.08-2.545-.08s-.933-3.306 1.983-5.888c3.072-2.72 6.727-1.825 6.727-1.825s.802 2.698-1.323 5.206z" style="fill:var(--color5, #9cc042)"/>
      <path fill="#85aa18" d="M24.856 11.141s-.952-.24-2.284-.094c.36.041.57.094.57.094s.779 2.698-1.285 5.206l-4.703 2.588a4.568 4.568 0 0 1-.154.018c.444.05 1.102.081 1.869-.018l4.703-2.588c2.063-2.508 1.285-5.206 1.285-5.206z" style="fill:var(--color6, #85aa18)"/>
      <path fill="#c5e866" d="M12.706 17.162c2.73 1.88 2.264 4.573 2.264 4.573s-2.947.985-5.606-.845c-2.801-1.928-2.335-4.622-2.335-4.622s2.912-1.01 5.677.894z" style="fill:var(--color3, #c5e866)"/>
      <path fill="#9cc042" d="M9.553 13.423c2.508 3.07 6.097 2.542 6.097 2.542s1.309-3.319-1.133-6.31c-2.573-3.15-6.162-2.622-6.162-2.622s-1.342 3.279 1.198 6.39z" style="fill:var(--color5, #9cc042)"/>
      <path fill="#c5e866" d="M22.759 21.034c-2.404 1.782-4.757.554-4.757.554s-.167-2.848 2.174-4.584c2.466-1.828 4.819-.6 4.819-.6s.198 2.825-2.237 4.63z" style="fill:var(--color3, #c5e866)"/>
      <path fill="#b2d94b" d="M24.996 16.403s-1.221-.64-2.824-.308c.585.119.944.308.944.308s.197 2.825-2.227 4.63a4.795 4.795 0 0 1-1.89.87c.904.185 2.327.204 3.769-.87 2.424-1.805 2.227-4.63 2.227-4.63z" style="fill:var(--color4, #b2d94b)"/>
      <path fill="#060606" d="M26.698 28.189c-.768-.531-1.645-.926-2.519-1.256-1.578-.595-4.203-1.301-7.84-1.341a7.559 7.559 0 0 1 .527-1.989 7.623 7.623 0 0 1 1.318-2.117 4.936 4.936 0 0 0 4.585-.537c2.362-1.6 2.2-4.07 2.192-4.175a.38.38 0 0 0-.217-.314 4.07 4.07 0 0 0-.903-.278 7.218 7.218 0 0 0 .947-2.157c.122-.477-.632-.661-.754-.185a6.482 6.482 0 0 1-1.065 2.245c-.841-.019-1.898.168-2.981.901a4.758 4.758 0 0 0-1.625 1.848 6.912 6.912 0 0 1-1.665.006c.79-1.044 2.848-3.573 5.165-4.895.433-.247.042-.906-.391-.658-2.255 1.286-4.217 3.574-5.163 4.79-.055-1.186.155-3.277 1.936-5.027 1.161-1.141 2.542-1.802 4.106-1.965a6.647 6.647 0 0 1 1.805.054c.035.199.077.52.084.923.009.487.786.481.777-.013-.014-.79-.149-1.304-.155-1.326a.384.384 0 0 0-.272-.27c-.039-.011-.971-.258-2.285-.128-1.21.12-2.992.598-4.61 2.188a7.467 7.467 0 0 0-.38.403c.218-.659.456-1.371.7-2.087.704-.21 2.442-.932 3.189-3.054.937-2.664-.682-4.56-.751-4.64a.393.393 0 0 0-.366-.127c-.104.019-2.563.494-3.512 3.194-.788 2.241.335 3.993.678 4.455-.227.667-.448 1.328-.652 1.945a7.115 7.115 0 0 0-1.499-3.403c-1.415-1.768-3.127-2.448-4.315-2.708-1.29-.282-2.245-.145-2.285-.139a.389.389 0 0 0-.303.237c-.011.027-.268.678-.356 1.676-.043.489.731.555.774.066.05-.562.159-1.001.233-1.246a6.676 6.676 0 0 1 1.798.156c1.533.343 2.826 1.16 3.841 2.428a6.326 6.326 0 0 1 1.418 4.142 7.032 7.032 0 0 1-.137 1.282c-1.537-2.806-3.714-4.962-3.81-5.056-.354-.348-.904.19-.55.538.023.023 2.267 2.246 3.753 5.022a6.898 6.898 0 0 1-1.303-.155c-1.522-.33-2.794-1.123-3.782-2.356a6.662 6.662 0 0 1-1.354-2.833c-.099-.482-.861-.331-.762.151a7.417 7.417 0 0 0 1.504 3.153 7.36 7.36 0 0 0 4.259 2.637 7.522 7.522 0 0 0 1.796.165v6.413a8.062 8.062 0 0 0-.377-.704c.053-.451.245-3.11-2.242-5.03-2.698-2.084-5.507-1.027-5.625-.981a.384.384 0 0 0-.241.297c-.019.123-.432 3.033 2.299 5.143a5.853 5.853 0 0 0 3.633 1.236c.674 0 1.226-.108 1.564-.195.541.926.861 1.948.957 3.059-2.011.033-3.888.26-5.584.675-.486.119-.298.858.188.739 1.644-.403 3.468-.622 5.427-.653v.875c0 .491.777.491.777 0v-.878c4.583.045 7.513 1.144 8.969 1.884H6.71c.378-.197.861-.42 1.457-.642.469-.175.192-.887-.276-.712-.968.361-1.657.727-2.065.97-.828.494-.828.614-.828.765 0 .21.174.381.389.381h21.245c.591 0 .358-.608.065-.811zm-6.269-10.576c1.64-1.111 3.197-.745 3.757-.552a4.125 4.125 0 0 1-1.86 3.262 4.148 4.148 0 0 1-3.552.562c.766-.703 1.698-1.286 2.791-1.745.461-.194.155-.894-.306-.7-.987.414-1.8.907-2.471 1.436a4.021 4.021 0 0 1 1.642-2.262zm-2.931 2.037c.174 0 .36-.006.554-.02a5.084 5.084 0 0 0-.195 1.087 8.411 8.411 0 0 0-1.558 2.255v-3.419c.273.046.688.097 1.2.097zm-.191-13.201A4.136 4.136 0 0 1 20 3.814a4.086 4.086 0 0 1 .467 3.711 4.038 4.038 0 0 1-2.133 2.365c.505-1.462 1.003-2.846 1.365-3.716.189-.455-.53-.743-.72-.288-.377.907-.892 2.336-1.408 3.832-.353-.663-.764-1.85-.265-3.269zM9.816 20.897c-.991-.765-1.631-1.74-1.902-2.896a4.87 4.87 0 0 1-.128-1.308c.662-.182 2.694-.558 4.635.941.964.744 1.584 1.703 1.844 2.85.038.167.065.326.084.474a8.905 8.905 0 0 0-.776-.808c-1.341-1.233-2.671-1.749-2.728-1.77-.467-.178-.749.532-.282.71.012.005 1.246.483 2.478 1.616.394.362.74.746 1.041 1.15-.861.172-2.632.304-4.266-.958z" style="fill:var(--color7, #060606)"/>
    </symbol>
    <symbol id="icon-Favicon-1" viewBox="0 0 32 32">
<path fill="#f6cc90" style="fill: var(--color1, #f6cc90)" d="M5 29c0-0.019 3.276-3 11-3 7.503 0 11 2.981 11 3h-22z"></path>
<path fill="#f0c17f" style="fill: var(--color2, #f0c17f)" d="M16.343 26c-0.464 0-0.912 0.012-1.343 0.033 6.368 0.325 9.349 2.949 9.349 2.967h2.651c0-0.019-3.388-3-10.657-3z"></path>
<path fill="#c5e866" style="fill: var(--color3, #c5e866)" d="M20.758 7.18c-0.783 2.406-2.894 2.82-2.894 2.82s-1.399-1.773-0.636-4.117c0.804-2.469 2.915-2.883 2.915-2.883s1.409 1.742 0.615 4.18z"></path>
<path fill="#b2d94b" style="fill: var(--color4, #b2d94b)" d="M20.012 3c0 0-0.643 0.11-1.393 0.551 0.412 0.699 0.924 2.010 0.317 3.628-0.437 1.164-1.231 1.862-1.935 2.272 0.206 0.35 0.386 0.548 0.386 0.548s2.432-0.414 3.335-2.82c0.914-2.437-0.709-4.18-0.709-4.18z"></path>
<path fill="#9cc042" style="fill: var(--color5, #9cc042)" d="M18.687 18.935c-1.466 0.184-2.545-0.080-2.545-0.080s-0.933-3.306 1.983-5.888c3.072-2.72 6.727-1.825 6.727-1.825s0.802 2.698-1.323 5.206z"></path>
<path fill="#85aa18" style="fill: var(--color6, #85aa18)" d="M24.856 11.141c0 0-0.952-0.24-2.284-0.094 0.36 0.041 0.57 0.094 0.57 0.094s0.779 2.698-1.285 5.206l-4.703 2.588c-0.052 0.007-0.104 0.013-0.154 0.018 0.444 0.050 1.102 0.081 1.869-0.018l4.703-2.588c2.063-2.508 1.285-5.206 1.285-5.206z"></path>
<path fill="#c5e866" style="fill: var(--color3, #c5e866)" d="M12.706 17.162c2.73 1.88 2.264 4.573 2.264 4.573s-2.947 0.985-5.606-0.845c-2.801-1.928-2.335-4.622-2.335-4.622s2.912-1.010 5.677 0.894z"></path>
<path fill="#9cc042" style="fill: var(--color5, #9cc042)" d="M9.553 13.423c2.508 3.070 6.097 2.542 6.097 2.542s1.309-3.319-1.133-6.31c-2.573-3.15-6.162-2.622-6.162-2.622s-1.342 3.279 1.198 6.39z"></path>
<path fill="#c5e866" style="fill: var(--color3, #c5e866)" d="M22.759 21.034c-2.404 1.782-4.757 0.554-4.757 0.554s-0.167-2.848 2.174-4.584c2.466-1.828 4.819-0.6 4.819-0.6s0.198 2.825-2.237 4.63z"></path>
<path fill="#b2d94b" style="fill: var(--color4, #b2d94b)" d="M24.996 16.403c0 0-1.221-0.64-2.824-0.308 0.585 0.119 0.944 0.308 0.944 0.308s0.197 2.825-2.227 4.63c-0.649 0.483-1.294 0.745-1.89 0.87 0.904 0.185 2.327 0.204 3.769-0.87 2.424-1.805 2.227-4.63 2.227-4.63z"></path>
<path fill="#060606" style="fill: var(--color7, #060606)" d="M26.698 28.189c-0.768-0.531-1.645-0.926-2.519-1.256-1.578-0.595-4.203-1.301-7.84-1.341 0.059-0.493 0.199-1.201 0.527-1.989 0.326-0.783 0.766-1.489 1.318-2.117 0.259 0.105 0.927 0.334 1.799 0.334 0.808 0 1.79-0.197 2.786-0.871 2.362-1.6 2.2-4.070 2.192-4.175-0.010-0.135-0.093-0.255-0.217-0.314-0.035-0.017-0.372-0.173-0.903-0.278 0.433-0.666 0.751-1.389 0.947-2.157 0.122-0.477-0.632-0.661-0.754-0.185-0.206 0.809-0.565 1.564-1.065 2.245-0.841-0.019-1.898 0.168-2.981 0.901-0.807 0.547-1.311 1.212-1.625 1.848-0.682 0.085-1.268 0.054-1.665 0.006 0.79-1.044 2.848-3.573 5.165-4.895 0.433-0.247 0.042-0.906-0.391-0.658-2.255 1.286-4.217 3.574-5.163 4.79-0.055-1.186 0.155-3.277 1.936-5.027 1.161-1.141 2.542-1.802 4.106-1.965 0.819-0.085 1.477-0.004 1.805 0.054 0.035 0.199 0.077 0.52 0.084 0.923 0.009 0.487 0.786 0.481 0.777-0.013-0.014-0.79-0.149-1.304-0.155-1.326-0.035-0.131-0.139-0.234-0.272-0.27-0.039-0.011-0.971-0.258-2.285-0.128-1.21 0.12-2.992 0.598-4.61 2.188-0.135 0.133-0.261 0.267-0.38 0.403 0.218-0.659 0.456-1.371 0.7-2.087 0.704-0.21 2.442-0.932 3.189-3.054 0.937-2.664-0.682-4.56-0.751-4.64-0.090-0.103-0.23-0.152-0.366-0.127-0.104 0.019-2.563 0.494-3.512 3.194-0.788 2.241 0.335 3.993 0.678 4.455-0.227 0.667-0.448 1.328-0.652 1.945-0.157-1.030-0.568-2.239-1.499-3.403-1.415-1.768-3.127-2.448-4.315-2.708-1.29-0.282-2.245-0.145-2.285-0.139-0.137 0.021-0.252 0.111-0.303 0.237-0.011 0.027-0.268 0.678-0.356 1.676-0.043 0.489 0.731 0.555 0.774 0.066 0.050-0.562 0.159-1.001 0.233-1.246 0.333-0.019 0.997-0.023 1.798 0.156 1.533 0.343 2.826 1.16 3.841 2.428 0.962 1.201 1.439 2.595 1.418 4.142-0.007 0.504-0.069 0.944-0.137 1.282-1.537-2.806-3.714-4.962-3.81-5.056-0.354-0.348-0.904 0.19-0.55 0.538 0.023 0.023 2.267 2.246 3.753 5.022-0.347-0.008-0.798-0.045-1.303-0.155-1.522-0.33-2.794-1.123-3.782-2.356-0.688-0.859-1.143-1.812-1.354-2.833-0.099-0.482-0.861-0.331-0.762 0.151 0.235 1.139 0.741 2.199 1.504 3.153 1.382 1.726 3.079 2.387 4.259 2.637 0.588 0.125 1.194 0.184 1.796 0.165v6.413c-0.117-0.248-0.244-0.482-0.377-0.704 0.053-0.451 0.245-3.11-2.242-5.030-2.698-2.084-5.507-1.027-5.625-0.981-0.128 0.050-0.22 0.163-0.241 0.297-0.019 0.123-0.432 3.033 2.299 5.143 1.269 0.98 2.595 1.236 3.633 1.236 0.674 0 1.226-0.108 1.564-0.195 0.541 0.926 0.861 1.948 0.957 3.059-2.011 0.033-3.888 0.26-5.584 0.675-0.486 0.119-0.298 0.858 0.188 0.739 1.644-0.403 3.468-0.622 5.427-0.653v0.875c0 0.491 0.777 0.491 0.777 0v-0.878c4.583 0.045 7.513 1.144 8.969 1.884h-18.556c0.378-0.197 0.861-0.42 1.457-0.642 0.469-0.175 0.192-0.887-0.276-0.712-0.968 0.361-1.657 0.727-2.065 0.97-0.828 0.494-0.828 0.614-0.828 0.765 0 0.21 0.174 0.381 0.389 0.381h21.245c0.591 0 0.358-0.608 0.065-0.811zM20.429 17.613c1.64-1.111 3.197-0.745 3.757-0.552-0.022 0.588-0.239 2.163-1.86 3.262-1.47 0.996-2.901 0.757-3.552 0.562 0.766-0.703 1.698-1.286 2.791-1.745 0.461-0.194 0.155-0.894-0.306-0.7-0.987 0.414-1.8 0.907-2.471 1.436 0.202-0.707 0.651-1.591 1.642-2.262zM17.498 19.65c0.174 0 0.36-0.006 0.554-0.020-0.128 0.435-0.177 0.818-0.195 1.087-0.736 0.765-1.229 1.555-1.558 2.255v-3.419c0.273 0.046 0.688 0.097 1.2 0.097zM17.307 6.449c0.651-1.85 2.125-2.463 2.693-2.635 0.337 0.487 1.111 1.882 0.467 3.711-0.482 1.37-1.449 2.045-2.133 2.365 0.505-1.462 1.003-2.846 1.365-3.716 0.189-0.455-0.53-0.743-0.72-0.288-0.377 0.907-0.892 2.336-1.408 3.832-0.353-0.663-0.764-1.85-0.265-3.269zM9.816 20.897c-0.991-0.765-1.631-1.74-1.902-2.896-0.133-0.567-0.14-1.042-0.128-1.308 0.662-0.182 2.694-0.558 4.635 0.941 0.964 0.744 1.584 1.703 1.844 2.85 0.038 0.167 0.065 0.326 0.084 0.474-0.259-0.306-0.522-0.575-0.776-0.808-1.341-1.233-2.671-1.749-2.728-1.77-0.467-0.178-0.749 0.532-0.282 0.71 0.012 0.005 1.246 0.483 2.478 1.616 0.394 0.362 0.74 0.746 1.041 1.15-0.861 0.172-2.632 0.304-4.266-0.958z"></path>
</symbol>
    <symbol id="icon-Instagram" viewBox="0 0 32 32">
      <path d="M16.006 6.488c3.206 0 3.585.014 4.846.071 1.172.052 1.804.248 2.227.412.558.216.961.478 1.378.895.422.422.679.82.9 1.378.164.422.361 1.059.412 2.226.056 1.266.071 1.645.071 4.847s-.014 3.585-.071 4.847c-.052 1.172-.248 1.804-.412 2.227a3.702 3.702 0 0 1-.895 1.377c-.422.422-.82.679-1.377.9-.422.164-1.06.361-2.227.413-1.266.056-1.645.07-4.847.07s-3.585-.014-4.847-.07c-1.172-.052-1.804-.248-2.226-.413a3.714 3.714 0 0 1-1.378-.895 3.767 3.767 0 0 1-.9-1.378c-.164-.422-.361-1.06-.412-2.226-.056-1.266-.071-1.645-.071-4.847s.014-3.585.071-4.847c.052-1.172.248-1.804.412-2.226.216-.558.478-.961.895-1.378.422-.422.82-.679 1.378-.9.422-.164 1.059-.361 2.226-.412 1.261-.056 1.641-.071 4.847-.071h.001zm0-2.16c-3.258 0-3.665.014-4.945.071-1.275.056-2.151.262-2.91.558a5.847 5.847 0 0 0-2.127 1.387 5.883 5.883 0 0 0-1.387 2.123c-.295.764-.502 1.636-.558 2.91-.056 1.285-.071 1.692-.071 4.949s.014 3.665.071 4.945c.056 1.275.262 2.151.558 2.91a5.86 5.86 0 0 0 1.387 2.127 5.876 5.876 0 0 0 2.123 1.383c.764.295 1.636.502 2.91.558 1.279.056 1.687.071 4.945.071s3.665-.014 4.945-.071c1.275-.056 2.151-.262 2.91-.558.787-.305 1.458-.717 2.123-1.383s1.078-1.335 1.383-2.123c.295-.764.502-1.635.558-2.91.056-1.279.07-1.687.07-4.945s-.014-3.665-.07-4.945c-.056-1.275-.263-2.151-.558-2.91a5.622 5.622 0 0 0-1.373-2.133 5.876 5.876 0 0 0-2.123-1.383c-.764-.295-1.636-.502-2.91-.558-1.284-.061-1.692-.075-4.949-.075l-.001.001z"/>
      <path d="M16.006 10.163a6.164 6.164 0 1 0 6.163 6.163 6.165 6.165 0 0 0-6.163-6.163zm0 10.161a3.998 3.998 0 1 1 0-7.996 3.998 3.998 0 0 1 0 7.996zM23.851 9.919a1.439 1.439 0 1 1-2.877 0 1.439 1.439 0 0 1 2.877 0z"/>
    </symbol>
    <symbol id="icon-keyboard_arrow_down" viewBox="0 0 32 32">
      <path stroke-width="1.333" d="M9.449 12.031c.134 0 .237.041.341.145l6.208 6.244 6.243-6.244c.104-.103.192-.133.299-.129a.491.491 0 0 1 .349.163c.104.104.145.207.145.341s-.041.236-.145.34L16.33 19.45a.527.527 0 0 1-.167.122.415.415 0 0 1-.165.031.499.499 0 0 1-.09-.009l-.077-.022-.07-.04a.681.681 0 0 1-.095-.082l-6.592-6.591a.392.392 0 0 1-.129-.318.507.507 0 0 1 .163-.365.447.447 0 0 1 .34-.145z"/>
    </symbol>
    <symbol id="icon-keyboard_arrow_up" viewBox="0 0 32 32">
      <path stroke-width="1.333" d="M16 11.605c.125 0 .227.038.333.145l6.591 6.592c.109.109.145.208.145.324s-.035.215-.145.324c-.104.104-.207.145-.341.145s-.236-.041-.34-.145l-.001-.001-6.243-6.207-6.241 6.241c-.104.104-.192.133-.299.129a.493.493 0 0 1-.349-.161c-.104-.104-.145-.207-.145-.341s.04-.237.145-.341l6.559-6.559a.438.438 0 0 1 .332-.145z"/>
    </symbol>
    <symbol id="icon-logout" viewBox="0 0 32 32">
      <path d="M6.072 28.199c-.613 0-1.145-.225-1.595-.676s-.676-.982-.676-1.595V6.071c0-.616.225-1.149.676-1.601s.982-.678 1.595-.678h8.807c.321 0 .59.111.808.334s.327.495.327.816c0 .322-.109.59-.327.806s-.487.323-.808.323H6.072v19.857h8.807c.321 0 .59.11.808.329s.327.49.327.812c0 .322-.109.591-.327.806s-.487.323-.808.323H6.072zm17.784-11.063H13.088c-.32 0-.59-.11-.808-.329s-.327-.49-.327-.812c0-.322.109-.591.327-.806s.488-.323.808-.323h10.701l-2.564-2.564c-.227-.228-.334-.495-.323-.8s.13-.571.357-.795c.226-.229.496-.342.81-.34s.585.117.815.344l4.529 4.529c.221.229.332.494.332.797s-.111.568-.332.794l-4.496 4.496c-.222.226-.486.335-.792.327s-.577-.126-.812-.352c-.218-.227-.328-.497-.331-.811s.112-.586.344-.813l2.531-2.539z"/>
    </symbol>
    <symbol id="icon-menu" viewBox="0 0 32 32">
      <path d="M4.936 24.295c-.321 0-.59-.11-.808-.329s-.327-.493-.327-.82c0-.322.109-.591.327-.807s.488-.323.808-.323h22.127c.321 0 .591.11.812.329s.331.49.331.812a1.121 1.121 0 0 1-1.143 1.137H4.936zm0-7.159c-.321 0-.59-.11-.808-.329s-.327-.49-.327-.812c0-.322.109-.591.327-.806s.488-.323.808-.323h22.127c.321 0 .591.11.812.329s.331.49.331.812c0 .322-.11.591-.331.806s-.492.323-.812.323H4.936zm0-7.152c-.321 0-.59-.11-.808-.329s-.327-.493-.327-.82c0-.322.109-.591.327-.806s.488-.323.808-.323h22.127c.321 0 .591.11.812.329s.331.49.331.812a1.117 1.117 0 0 1-1.143 1.138H4.936z"/>
    </symbol>
    <symbol id="icon-travel_luggage_and_bags" viewBox="0 0 32 32">
      <path d="M6.467 25.762v-15.69c0-.632.221-1.17.663-1.614s.978-.665 1.608-.665h3.341V3.587c0-.325.119-.608.358-.851s.521-.364.846-.364h5.435c.325 0 .607.121.846.364s.358.526.358.851v4.206h3.341c.632 0 1.17.222 1.614.665s.665.981.665 1.614v15.69c0 .63-.222 1.166-.665 1.608s-.981.663-1.614.663v.548c0 .297-.099.546-.298.747s-.448.301-.75.301c-.305 0-.566-.093-.784-.279s-.306-.442-.263-.769v-.548H10.836v.548c0 .297-.099.546-.298.747s-.449.301-.75.301c-.305 0-.566-.093-.785-.279s-.306-.442-.263-.769v-.548c-.63 0-1.166-.221-1.608-.663s-.663-.978-.663-1.608zm7.7-17.969h3.667V4.46h-3.667v3.333zM16 15.778c1.276 0 2.536-.142 3.779-.425s2.404-.763 3.482-1.436v-3.844H8.738v3.846c1.078.673 2.239 1.151 3.483 1.435s2.503.425 3.779.425zm-1.048 2.651v-.43c-1.112-.067-2.191-.246-3.236-.538s-2.038-.722-2.978-1.289v9.59h14.523v-9.598c-.939.567-1.932.997-2.978 1.289s-2.124.474-3.236.546v.43c0 .297-.1.546-.299.747s-.451.301-.754.301-.552-.099-.748-.298-.294-.449-.294-.75z"/>
    </symbol>
    <symbol id="icon-wand_stars" viewBox="0 0 32 32">
      <path d="m21.848 16.962-3.113 5.02c-.178.294-.429.408-.754.341s-.532-.258-.621-.575l-1.092-4.41-10.08 10.031c-.227.232-.492.348-.796.348s-.569-.116-.796-.348c-.226-.227-.34-.492-.34-.796s.113-.569.34-.796l10.047-10.039-4.425-1.092c-.316-.089-.507-.296-.571-.62s.048-.579.337-.762l5.02-3.146-.408-5.869c-.022-.339.118-.586.421-.741s.579-.122.829.1l4.504 3.788 5.461-2.189c.311-.111.58-.053.808.175s.286.497.175.808l-2.222 5.461 3.788 4.512c.222.25.261.526.117.829s-.386.443-.725.421l-5.902-.449zM4.215 7.999c-.122-.116-.183-.253-.183-.411s.061-.297.183-.418l1.629-1.629c.116-.116.253-.175.41-.175s.297.058.419.175l1.588 1.596c.122.122.182.26.182.414s-.061.293-.182.415L6.632 9.595c-.122.122-.26.182-.415.182s-.293-.061-.414-.182L4.215 7.999zm14.434 10.05 2.052-3.304 3.896.292-2.536-2.987 1.468-3.604-3.604 1.46L16.93 7.37l.3 3.896-3.312 2.077 3.796.943.935 3.763zm5.386 9.736-1.629-1.621c-.122-.122-.177-.26-.166-.414s.077-.293.199-.415l1.596-1.588c.116-.122.253-.183.411-.183s.297.061.418.183l1.629 1.621c.116.122.169.26.158.415s-.075.293-.191.414l-1.596 1.588c-.122.122-.26.183-.414.183s-.293-.061-.415-.183z"/>
    </symbol>
    <symbol id="icon-X" viewBox="0 0 32 32">
      <path d="M22.901 5.657h3.68l-8.04 9.037L28 26.991h-7.406l-5.801-7.458-6.637 7.458H4.474l8.6-9.666L4 5.657h7.594l5.243 6.817 6.064-6.817zM21.61 24.824h2.039L10.486 7.709H8.298L21.61 24.824z"/>
    </symbol>
    <symbol id="icon-Youtube" viewBox="0 0 32 32">
      <path d="M28.791 9.604a3.345 3.345 0 0 0-2.35-2.354C24.353 6.677 16 6.667 16 6.667s-8.352-.009-10.441.539a3.416 3.416 0 0 0-2.354 2.371c-.551 2.088-.556 6.419-.556 6.419s-.005 4.352.541 6.419a3.341 3.341 0 0 0 2.351 2.353c2.109.573 10.44.583 10.44.583s8.353.009 10.441-.537a3.356 3.356 0 0 0 2.356-2.35c.552-2.087.556-6.416.556-6.416s.027-4.353-.543-6.441zM13.328 20.007l.007-8 6.943 4.007-6.949 3.993z"/>
    </symbol>
  </defs>
</svg>
